<svg xmlns="http://www.w3.org/2000/svg" viewBox="0 0 1600 260" width="1600" height="260" role="img" aria-label="SPIRA — Sound Pipeline Inference Review and Annotation">
  <title>SPIRA — Sound Pipeline Inference Review &amp; Annotation</title>
  <desc>Logo: a waveform-modulated spiral mark in a cyan-to-purple-to-pink gradient, beside the SPIRA wordmark and full acronym, set over layered sine-wave backgrounds extended across the banner.</desc>
  <defs>
    <linearGradient id="waveGrad" x1="20" y1="20" x2="240" y2="240" gradientUnits="userSpaceOnUse">
      <stop offset="0%" stop-color="#0891b2"/>
      <stop offset="50%" stop-color="#7c3aed"/>
      <stop offset="100%" stop-color="#db2777"/>
    </linearGradient>
    <linearGradient id="bgStrong" x1="0%" y1="0%" x2="100%" y2="0%">
      <stop offset="0%" stop-color="#0891b2" stop-opacity="0.32"/>
      <stop offset="50%" stop-color="#7c3aed" stop-opacity="0.26"/>
      <stop offset="100%" stop-color="#db2777" stop-opacity="0.32"/>
    </linearGradient>
    <linearGradient id="bgMed" x1="0%" y1="0%" x2="100%" y2="0%">
      <stop offset="0%" stop-color="#0891b2" stop-opacity="0.22"/>
      <stop offset="50%" stop-color="#7c3aed" stop-opacity="0.18"/>
      <stop offset="100%" stop-color="#db2777" stop-opacity="0.22"/>
    </linearGradient>
    <linearGradient id="bgSoft" x1="0%" y1="0%" x2="100%" y2="0%">
      <stop offset="0%" stop-color="#0891b2" stop-opacity="0.15"/>
      <stop offset="50%" stop-color="#7c3aed" stop-opacity="0.12"/>
      <stop offset="100%" stop-color="#db2777" stop-opacity="0.15"/>
    </linearGradient>
  </defs>

  <!-- Wave background: five layered sine waves, extended to x=1600 (twice prior length) -->
  <g aria-hidden="true" fill="none">
    <path d="M 0 130 Q 50 80, 100 130 T 200 130 T 300 130 T 400 130 T 500 130 T 600 130 T 700 130 T 800 130 T 900 130 T 1000 130 T 1100 130 T 1200 130 T 1300 130 T 1400 130 T 1500 130 T 1600 130" stroke="url(#bgStrong)" stroke-width="1.6"/>
    <path d="M 0 130 Q 40 165, 80 130 T 160 130 T 240 130 T 320 130 T 400 130 T 480 130 T 560 130 T 640 130 T 720 130 T 800 130 T 880 130 T 960 130 T 1040 130 T 1120 130 T 1200 130 T 1280 130 T 1360 130 T 1440 130 T 1520 130 T 1600 130" stroke="url(#bgMed)" stroke-width="1.3"/>
    <path d="M 0 130 Q 75 105, 150 130 T 300 130 T 450 130 T 600 130 T 750 130 T 900 130 T 1050 130 T 1200 130 T 1350 130 T 1500 130 T 1600 130" stroke="url(#bgMed)" stroke-width="1.1"/>
    <path d="M 0 100 Q 30 80, 60 100 T 120 100 T 180 100 T 240 100 T 300 100 T 360 100 T 420 100 T 480 100 T 540 100 T 600 100 T 660 100 T 720 100 T 780 100 T 840 100 T 900 100 T 960 100 T 1020 100 T 1080 100 T 1140 100 T 1200 100 T 1260 100 T 1320 100 T 1380 100 T 1440 100 T 1500 100 T 1560 100 T 1600 100" stroke="url(#bgSoft)" stroke-width="0.9"/>
    <path d="M 0 170 Q 35 190, 70 170 T 140 170 T 210 170 T 280 170 T 350 170 T 420 170 T 490 170 T 560 170 T 630 170 T 700 170 T 770 170 T 840 170 T 910 170 T 980 170 T 1050 170 T 1120 170 T 1190 170 T 1260 170 T 1330 170 T 1400 170 T 1470 170 T 1540 170 T 1600 170" stroke="url(#bgSoft)" stroke-width="0.9"/>
  </g>

  <!-- Spiral mark (scaled to 85%) -->
  <g transform="translate(120,130) scale(0.85)">
    <path d="M 84.50 -0.02 L 84.43 0.75 L 84.36 1.52 L 84.28 2.29 L 84.18 3.06 L 84.06 3.82 L 84.00 4.59 L 83.83 5.35 L 83.77 6.12 L 83.65 6.88 L 83.43 7.63 L 83.41 8.40 L 83.12 9.13 L 83.00 9.89 L 82.86 10.64 L 82.73 11.40 L 82.51 12.14 L 82.25 12.87 L 82.24 13.64 L 81.94 14.36 L 81.87 15.13 L 81.70 15.87 L 81.36 16.57 L 81.15 17.31 L 81.12 18.08 L 81.04 18.85 L 80.66 19.54 L 80.53 20.29 L 80.49 21.08 L 80.03 21.73 L 79.97 22.51 L 79.80 23.26 L 79.34 23.90 L 78.76 24.50 L 78.45 25.20 L 78.47 26.01 L 77.79 26.56 L 77.29 27.17 L 77.29 27.98 L 76.66 28.53 L 76.50 29.28 L 76.52 30.11 L 76.16 30.78 L 75.63 31.36 L 75.22 32.00 L 75.32 32.88 L 74.99 33.56 L 74.37 34.09 L 73.99 34.74 L 73.87 35.52 L 73.78 36.33 L 73.33 36.94 L 72.72 37.46 L 72.54 38.23 L 71.80 38.66 L 71.66 39.45 L 71.61 40.30 L 71.41 41.07 L 70.70 41.51 L 70.30 42.14 L 69.87 42.76 L 69.07 43.12 L 68.74 43.80 L 68.07 44.25 L 67.71 44.90 L 66.87 45.21 L 66.34 45.73 L 66.17 46.54 L 65.03 46.58 L 64.20 46.85 L 63.61 47.31 L 63.11 47.84 L 62.41 48.20 L 62.33 49.09 L 62.06 49.82 L 61.51 50.31 L 60.93 50.76 L 60.38 51.25 L 59.69 51.59 L 58.75 51.69 L 58.95 52.89 L 58.47 53.44 L 57.46 53.45 L 57.80 54.83 L 57.31 55.38 L 56.89 56.01 L 56.02 56.13 L 55.88 57.07 L 55.46 57.70 L 54.91 58.19 L 54.53 58.88 L 53.26 58.50 L 52.29 58.46 L 52.44 59.80 L 51.16 59.35 L 50.71 59.93 L 49.90 60.06 L 49.06 60.13 L 49.02 61.28 L 48.46 61.73 L 47.65 61.83 L 47.10 62.30 L 46.70 62.99 L 45.70 62.77 L 45.73 64.14 L 45.16 64.59 L 44.33 64.62 L 43.87 65.25 L 43.23 65.58 L 42.74 66.16 L 42.35 66.95 L 41.25 66.46 L 41.03 67.56 L 40.13 67.42 L 39.64 68.03 L 38.81 67.99 L 38.50 68.97 L 38.11 69.83 L 37.21 69.63 L 36.42 69.65 L 36.21 70.94 L 35.01 70.04 L 34.33 70.26 L 33.98 71.28 L 33.17 71.20 L 32.93 72.54 L 31.58 71.11 L 31.33 72.47 L 30.65 72.69 L 29.71 72.22 L 29.34 73.33 L 28.11 71.97 L 27.66 72.85 L 26.69 72.16 L 26.03 72.42 L 25.19 72.08 L 24.47 72.09 L 24.12 73.45 L 23.38 73.44 L 22.69 73.59 L 21.61 72.17 L 20.99 72.51 L 20.22 72.28 L 19.74 73.29 L 19.06 73.45 L 18.19 72.62 L 17.64 73.45 L 17.05 74.08 L 16.37 74.22 L 15.80 75.07 L 14.99 74.41 L 14.35 74.84 L 13.63 74.75 L 13.09 76.06 L 12.35 75.78 L 11.76 76.96 L 11.06 77.11 L 10.26 76.09 L 9.57 76.34 L 8.76 74.89 L 8.12 75.70 L 7.41 75.47 L 6.66 74.23 L 5.97 74.06 L 5.29 74.05 L 4.60 72.87 L 3.93 73.37 L 3.25 73.80 L 2.59 73.07 L 1.90 73.56 L 1.26 72.46 L 0.59 72.78 L -0.10 73.14 L -0.73 72.45 L -1.45 73.25 L -2.13 73.23 L -2.83 73.60 L -3.58 74.26 L -4.12 72.92 L -3.85 64.86 L -4.44 64.79 L -5.03 64.71 L -6.96 73.86 L -7.87 75.28 L -8.66 75.87 L -9.31 75.48 L -9.91 74.90 L -10.86 76.18 L -11.54 75.99 L -12.29 76.09 L -13.06 76.32 L -13.69 75.88 L -14.12 74.66 L -14.66 73.96 L -15.74 75.37 L -16.13 74.07 L -16.74 73.68 L -17.56 74.03 L -18.13 73.48 L -18.81 73.33 L -19.72 73.91 L -20.32 73.49 L -20.68 72.37 L -21.24 71.89 L -21.80 71.43 L -22.75 72.01 L -23.01 70.74 L -23.66 70.54 L -24.23 70.12 L -25.35 71.06 L -25.78 70.30 L -26.38 69.95 L -26.99 69.64 L -27.54 69.19 L -27.91 68.36 L -28.73 68.51 L -29.09 67.71 L -29.82 67.65 L -30.58 67.65 L -30.80 66.60 L -31.68 66.82 L -31.49 65.06 L -32.84 66.12 L -33.18 65.35 L -34.08 65.56 L -33.97 64.04 L -34.73 64.02 L -36.07 64.91 L -36.46 64.25 L -36.51 63.09 L -37.32 63.10 L -38.63 63.84 L -39.17 63.42 L -39.74 63.04 L -40.18 62.47 L -41.44 63.05 L -41.14 61.48 L -42.19 61.75 L -43.31 62.07 L -43.88 61.67 L -43.76 60.41 L -45.19 61.09 L -44.86 59.60 L -45.50 59.30 L -46.14 59.00 L -47.06 59.00 L -46.77 57.63 L -47.00 56.88 L -47.39 56.31 L -47.54 55.48 L -48.23 55.23 L -48.23 54.28 L -48.61 53.71 L -50.05 54.19 L -49.91 53.12 L -50.70 52.95 L -51.49 52.76 L -51.12 51.51 L -51.86 51.28 L -52.63 51.06 L -53.34 50.79 L -52.88 49.52 L -53.39 49.07 L -54.44 49.07 L -54.48 48.25 L -56.01 48.60 L -55.81 47.58 L -56.85 47.53 L -57.36 47.06 L -56.09 45.30 L -56.06 44.46 L -56.62 44.05 L -57.29 43.72 L -57.77 43.24 L -57.03 41.96 L -57.13 41.26 L -58.41 41.30 L -58.33 40.48 L -58.94 40.09 L -59.11 39.42 L -59.32 38.79 L -60.11 38.50 L -59.57 37.44 L -60.60 37.27 L -60.34 36.39 L -61.59 36.32 L -61.61 35.59 L -62.28 35.20 L -62.87 34.76 L -63.83 34.48 L -65.45 34.50 L -64.79 33.46 L -65.18 32.90 L -64.13 31.72 L -64.70 31.25 L -64.51 30.46 L -64.96 29.93 L -64.59 29.08 L -65.69 28.80 L -65.91 28.18 L -65.01 27.16 L -64.96 26.46 L -66.28 26.23 L -66.33 25.56 L -65.88 24.73 L -66.84 24.35 L -65.95 23.41 L -66.01 22.75 L -66.71 22.29 L -67.38 21.80 L -67.70 21.21 L -68.04 20.62 L -68.79 20.13 L -68.46 19.38 L -69.52 18.94 L -69.52 18.27 L -68.74 17.44 L -68.82 16.79 L -69.65 16.28 L -69.74 15.63 L -69.66 14.96 L -71.55 14.58 L -71.30 13.87 L -70.23 13.06 L -71.86 12.60 L -70.92 11.82 L -71.44 11.21 L -70.74 10.47 L -71.95 9.92 L -70.60 9.15 L -70.23 8.47 L -71.24 7.88 L -69.41 7.13 L -70.99 6.55 L -69.86 5.86 L -70.47 5.23 L -69.66 4.58 L -69.00 3.93 L -68.91 3.30 L -69.18 2.66 L -67.73 2.06 L -67.53 1.45 L -67.55 0.83 L -66.27 0.27 L -66.26 -0.34 L -67.25 -1.01 L -67.39 -1.64 L -66.87 -2.22 L -66.14 -2.76 L -65.55 -3.31 L -65.83 -3.95 L -65.99 -4.58 L -66.73 -5.29 L -66.30 -5.85 L -67.09 -6.59 L -66.54 -7.12 L -68.03 -8.00 L -68.10 -8.66 L -68.06 -9.29 L -67.98 -9.92 L -69.38 -10.85 L -70.10 -11.67 L -68.70 -12.02 L -69.57 -12.89 L -68.87 -13.38 L -67.79 -13.76 L -67.51 -14.35 L -66.04 -14.59 L -66.56 -15.39 L -65.69 -15.78 L -65.68 -16.43 L -64.39 -16.67 L -64.39 -17.31 L -63.07 -17.51 L -63.17 -18.18 L -63.24 -18.85 L -62.89 -19.36 L -62.66 -19.92 L -63.29 -20.81 L -63.72 -21.65 L -63.46 -22.21 L -63.60 -22.93 L -63.27 -23.47 L -62.13 -23.64 L -62.23 -24.35 L -63.39 -25.57 L -63.34 -26.24 L -62.34 -26.45 L -61.91 -26.93 L -62.17 -27.76 L -62.14 -28.45 L -62.09 -29.13 L -62.66 -30.16 L -61.37 -30.17 L -60.54 -30.42 L -60.88 -31.34 L -60.68 -31.95 L -59.49 -31.96 L -60.23 -33.15 L -59.52 -33.44 L -59.13 -33.94 L -58.69 -34.40 L -59.13 -35.45 L -57.36 -35.00 L -57.79 -36.05 L -57.72 -36.77 L -57.80 -37.61 L -56.43 -37.38 L -55.62 -37.54 L -55.61 -38.31 L -55.19 -38.77 L -56.27 -40.43 L -56.07 -41.09 L -54.15 -40.32 L -54.91 -41.77 L -54.37 -42.14 L -53.60 -42.31 L -54.25 -43.73 L -52.96 -43.41 L -53.13 -44.44 L -51.15 -43.44 L -50.75 -43.90 L -51.05 -45.06 L -50.97 -45.86 L -50.35 -46.13 L -49.18 -45.82 L -48.17 -45.64 L -48.43 -46.82 L -47.53 -46.75 L -47.70 -47.86 L -43.85 -44.41 L -39.56 -40.31 L -39.17 -40.64 L -38.77 -40.97 L -42.21 -46.01 L -44.86 -50.26 L -45.05 -51.49 L -44.40 -51.67 L -44.44 -52.76 L -44.17 -53.46 L -42.77 -52.62 L -42.80 -53.74 L -42.54 -54.47 L -41.45 -53.99 L -41.08 -54.56 L -39.83 -53.80 L -40.15 -55.43 L -38.84 -54.53 L -38.83 -55.69 L -37.41 -54.55 L -36.95 -54.97 L -36.27 -54.99 L -36.16 -56.03 L -35.63 -56.34 L -34.88 -56.23 L -34.15 -56.15 L -33.08 -55.40 L -33.19 -56.93 L -32.18 -56.25 L -31.38 -55.96 L -31.26 -57.08 L -30.41 -56.68 L -30.04 -57.28 L -29.55 -57.64 L -29.34 -58.66 L -29.06 -59.54 L -28.41 -59.56 L -27.89 -59.88 L -27.68 -61.03 L -26.75 -60.30 L -26.55 -61.52 L -25.63 -60.76 L -25.27 -61.56 L -24.52 -61.27 L -23.67 -60.61 L -22.83 -59.92 L -22.49 -60.81 L -21.67 -60.13 L -20.86 -59.46 L -20.43 -60.07 L -19.87 -60.23 L -19.15 -59.75 L -18.66 -60.16 L -18.45 -61.80 L -17.61 -60.78 L -17.00 -60.69 L -16.60 -61.60 L -16.01 -61.62 L -15.77 -63.50 L -15.19 -63.68 L -14.66 -64.13 L -14.00 -63.86 L -13.68 -65.70 L -13.01 -65.39 L -12.46 -65.92 L -11.58 -63.82 L -10.96 -63.56 L -10.33 -63.26 L -9.73 -63.17 L -9.09 -62.59 L -8.58 -63.48 L -7.88 -61.86 L -7.32 -62.01 L -6.74 -61.90 L -6.19 -62.49 L -5.63 -63.11 L -5.04 -62.39 L -4.47 -63.22 L -3.89 -62.83 L -3.32 -61.56 L -2.75 -61.74 L -2.15 -63.24 L -1.61 -61.89 L -0.99 -63.24 L -0.39 -63.50 L 0.21 -63.83 L 0.74 -63.07 L 1.24 -62.05 L 1.98 -63.87 L 2.50 -63.16 L 2.98 -62.20 L 3.66 -63.10 L 4.11 -62.07 L 4.70 -62.13 L 5.32 -62.49 L 5.86 -62.17 L 6.45 -62.25 L 7.08 -62.52 L 7.92 -63.90 L 8.29 -62.70 L 9.11 -63.84 L 9.57 -63.14 L 10.19 -63.23 L 10.74 -63.02 L 11.72 -64.60 L 12.28 -64.34 L 12.94 -64.50 L 12.86 -61.86 L 13.83 -63.20 L 13.79 -60.91 L 14.17 -60.19 L 14.79 -60.29 L 15.03 -59.15 L 15.86 -59.89 L 16.17 -59.03 L 16.60 -58.57 L 16.72 -57.25 L 17.41 -57.53 L 17.97 -57.45 L 18.32 -56.84 L 18.74 -56.42 L 19.46 -56.74 L 19.34 -55.04 L 20.31 -55.94 L 20.56 -55.15 L 21.50 -55.90 L 21.60 -54.81 L 22.53 -55.50 L 22.58 -54.36 L 23.57 -55.13 L 24.24 -55.23 L 24.89 -55.28 L 25.31 -54.89 L 25.85 -54.73 L 27.10 -55.81 L 27.59 -55.53 L 28.26 -55.54 L 29.81 -57.03 L 30.02 -56.23 L 30.40 -55.73 L 30.42 -54.69 L 31.05 -54.61 L 31.55 -54.32 L 31.75 -53.58 L 32.59 -53.80 L 32.22 -52.25 L 32.80 -52.10 L 33.41 -51.98 L 33.93 -51.73 L 34.33 -51.32 L 35.27 -51.61 L 34.79 -50.08 L 36.16 -50.89 L 35.99 -49.78 L 37.68 -50.92 L 37.94 -50.33 L 38.56 -50.16 L 38.79 -49.55 L 39.58 -49.56 L 39.28 -48.37 L 40.74 -49.10 L 40.47 -47.96 L 40.48 -47.14 L 41.03 -46.89 L 42.74 -47.79 L 42.31 -46.54 L 42.64 -46.06 L 42.34 -44.99 L 43.81 -45.58 L 44.18 -45.13 L 44.44 -44.59 L 44.09 -43.51 L 43.66 -42.39 L 44.35 -42.24 L 45.48 -42.45 L 44.47 -40.89 L 46.15 -41.53 L 46.37 -40.98 L 45.20 -39.36 L 47.06 -40.07 L 47.16 -39.44 L 47.07 -38.68 L 47.54 -38.33 L 46.99 -37.26 L 47.26 -36.78 L 47.66 -36.39 L 49.00 -36.61 L 49.24 -36.10 L 49.12 -35.36 L 50.30 -35.43 L 49.94 -34.56 L 51.54 -34.86 L 51.39 -34.11 L 51.66 -33.61 L 52.32 -33.33 L 51.87 -32.44 L 52.84 -32.32 L 52.71 -31.61 L 53.92 -31.60 L 54.38 -31.19 L 53.90 -30.31 L 53.23 -29.37 L 54.29 -29.24 L 54.36 -28.65 L 55.03 -28.33 L 54.62 -27.53 L 55.42 -27.27 L 54.95 -26.46 L 54.94 -25.85 L 56.26 -25.77 L 54.74 -24.59 L 56.33 -24.58 L 56.16 -23.93 L 56.89 -23.59 L 56.22 -22.76 L 56.73 -22.34 L 57.50 -22.00 L 56.00 -20.95 L 58.19 -21.03 L 58.26 -20.46 L 58.91 -20.05 L 58.55 -19.36 L 57.77 -18.58 L 56.86 -17.78 L 57.13 -17.28 L 58.15 -16.95 L 57.17 -16.17 L 56.44 -15.46 L 58.06 -15.24 L 57.91 -14.65 L 57.07 -13.94 L 57.53 -13.47 L 58.04 -13.01 L 57.28 -12.34 L 57.05 -11.76 L 57.81 -11.32 L 58.10 -10.82 L 57.63 -10.22 L 57.93 -9.71 L 59.61 -9.33 L 59.55 -8.77 L 59.55 -8.21 L 58.44 -7.58 L 58.29 -7.03 L 58.32 -6.50 L 58.78 -5.98 L 57.64 -5.40 L 57.25 -4.86 L 57.41 -4.33 L 57.60 -3.81 L 56.34 -3.29 L 56.75 -2.76 L 56.55 -2.25 L 57.09 -1.71 L 56.30 -1.22 L 55.90 -0.72 L 56.96 -0.14 L 55.54 0.28 L 56.47 0.87 L 56.00 1.34 L 57.07 1.97 L 57.57 2.55 L 57.21 3.04 L 56.80 3.52 L 57.81 4.18 L 59.18 4.92 L 57.94 5.28 L 58.80 5.96 L 59.04 6.55 L 57.96 6.91 L 58.90 7.63 L 57.93 7.99 L 57.25 8.40 L 58.03 9.12 L 57.26 9.49 L 56.34 9.82 L 56.07 10.29 L 56.60 10.97 L 55.53 11.23 L 55.53 11.76 L 55.94 12.43 L 55.03 12.70 L 54.75 13.16 L 55.36 13.90 L 53.95 13.98 L 54.48 14.70 L 54.48 15.25 L 54.17 15.69 L 52.76 15.72 L 45.19 13.36 L 44.70 13.63 L 44.54 14.03 L 52.20 17.67 L 52.81 18.48 L 52.66 18.97 L 51.61 19.07 L 52.21 19.90 L 51.54 20.15 L 51.77 20.82 L 51.00 21.01 L 50.51 21.33 L 51.41 22.36 L 49.99 22.20 L 50.97 23.30 L 49.99 23.34 L 50.67 24.30 L 49.49 24.22 L 49.49 24.81 L 50.04 25.73 L 50.14 26.40 L 49.44 26.57 L 50.84 28.08 L 49.72 27.98 L 50.14 28.89 L 50.20 29.58 L 49.03 29.41 L 48.24 29.50 L 48.37 30.23 L 47.55 30.28 L 47.14 30.62 L 46.89 31.08 L 45.40 30.57 L 45.75 31.49 L 44.42 31.07 L 44.23 31.56 L 44.47 32.41 L 44.10 32.76 L 42.75 32.25 L 42.77 32.93 L 42.46 33.31 L 42.05 33.61 L 42.69 34.89 L 42.38 35.29 L 42.36 35.97 L 42.15 36.48 L 42.08 37.14 L 41.68 37.47 L 40.79 37.28 L 40.89 38.12 L 41.25 39.27 L 40.19 38.88 L 40.62 40.14 L 39.87 40.08 L 39.90 40.90 L 39.84 41.65 L 38.46 40.81 L 37.94 40.99 L 37.61 41.39 L 38.11 42.87 L 36.77 41.98 L 36.39 42.34 L 36.88 43.87 L 35.57 42.95 L 36.01 44.45 L 35.47 44.59 L 35.35 45.35 L 34.02 44.31 L 34.34 45.73 L 33.21 44.94 L 32.99 45.55 L 32.39 45.56 L 31.79 45.57 L 31.65 46.32 L 30.79 45.87 L 30.46 46.32 L 30.10 46.72 L 29.81 47.25 L 29.38 47.54 L 28.81 47.54 L 28.25 47.58 L 27.78 47.76 L 27.72 48.80 L 27.39 49.31 L 27.04 49.78 L 26.49 49.83 L 25.97 49.94 L 25.65 50.51 L 24.98 50.24 L 24.13 49.54 L 23.56 49.47 L 23.25 50.04 L 23.10 51.11 L 22.44 50.78 L 21.68 50.16 L 21.61 51.50 L 21.03 51.39 L 20.44 51.21 L 20.18 52.09 L 19.39 51.26 L 18.90 51.35 L 18.53 51.90 L 18.05 52.06 L 17.75 52.92 L 17.19 52.79 L 16.79 53.30 L 16.02 52.25 L 15.73 53.24 L 15.18 53.13 L 14.83 53.91 L 14.25 53.64 L 13.81 54.08 L 13.22 53.66 L 12.66 53.38 L 12.23 53.92 L 11.63 53.32 L 11.13 53.38 L 10.63 53.36 L 10.13 53.44 L 9.67 53.83 L 9.23 54.39 L 8.75 54.77 L 8.16 53.76 L 7.72 54.66 L 7.19 54.32 L 6.72 54.77 L 6.22 54.91 L 5.70 54.73 L 5.17 53.64 L 4.67 53.84 L 4.19 55.31 L 3.68 53.75 L 3.18 54.59 L 2.69 53.85 L 2.22 53.14 L 1.73 53.06 L 1.23 53.37 L 0.73 53.46 L 0.27 53.01 L -0.25 53.52 L -0.70 52.89 L -1.09 51.90 L -1.56 51.78 L -2.03 51.71 L -2.49 51.59 L -3.00 51.82 L -3.60 52.71 L -4.01 52.13 L -4.51 52.21 L -4.97 52.07 L -5.59 52.79 L -6.08 52.81 L -6.69 53.35 L -7.17 53.24 L -7.56 52.73 L -8.17 53.18 L -8.62 52.95 L -8.82 51.71 L -9.18 51.16 L -9.72 51.32 L -10.02 50.60 L -10.40 50.20 L -11.00 50.58 L -11.04 49.08 L -11.61 49.36 L -12.03 49.15 L -12.40 48.78 L -12.65 48.09 L -13.35 48.71 L -13.53 47.84 L -14.18 48.29 L -14.49 47.80 L -15.08 48.03 L -15.43 47.68 L -15.98 47.80 L -16.58 48.02 L -16.98 47.77 L -17.33 47.42 L -17.65 47.00 L -18.31 47.33 L -18.87 47.41 L -19.46 47.56 L -19.67 46.93 L -20.26 47.05 L -21.01 47.45 L -21.70 47.72 L -22.15 47.55 L -22.45 47.10 L -22.77 46.70 L -23.43 46.89 L -24.05 46.98 L -24.24 46.36 L -24.80 46.35 L -25.20 46.08 L -25.13 45.08 L -25.70 45.10 L -26.36 45.22 L -26.36 44.38 L -26.54 43.81 L -26.95 43.58 L -27.64 43.71 L -27.67 42.97 L -27.74 42.29 L -28.01 41.88 L -28.67 41.97 L -29.22 41.90 L -29.16 41.10 L -29.10 40.30 L -29.62 40.21 L -30.04 39.99 L -30.17 39.45 L -30.73 39.39 L -30.62 38.59 L -31.53 38.90 L -31.09 37.77 L -31.88 37.94 L -31.83 37.25 L -32.32 37.10 L -32.51 36.65 L -32.91 36.42 L -33.15 36.02 L -33.53 35.76 L -33.94 35.52 L -35.21 36.05 L -35.57 35.75 L -35.82 35.35 L -35.69 34.64 L -36.38 34.62 L -36.92 34.46 L -37.50 34.32 L -37.83 33.99 L -38.08 33.60 L -38.84 33.58 L -38.27 32.58 L -39.23 32.70 L -38.48 31.60 L -39.51 31.76 L -39.46 31.16 L -39.80 30.83 L -40.12 30.49 L -39.61 29.61 L -40.61 29.70 L -40.05 28.82 L -41.19 28.97 L -41.13 28.40 L -41.73 28.22 L -41.67 27.65 L -42.41 27.54 L -42.60 27.11 L -43.48 27.05 L -43.05 26.30 L -44.16 26.34 L -43.76 25.62 L -43.83 25.14 L -43.31 24.38 L -44.35 24.35 L -43.51 23.47 L -43.85 23.12 L -44.17 22.76 L -44.80 22.53 L -44.72 22.00 L -44.59 21.46 L -44.33 20.87 L -42.58 19.74 L -34.20 16.26 L -34.32 15.93 L -34.43 15.61 L -43.50 18.24 L -46.49 18.74 L -47.32 18.51 L -46.60 17.81 L -47.09 17.48 L -47.36 17.07 L -47.28 16.57 L -47.04 16.04 L -47.15 15.59 L -47.15 15.12 L -47.08 14.64 L -47.27 14.22 L -47.03 13.70 L -46.96 13.23 L -47.02 12.79 L -47.26 12.38 L -47.13 11.90 L -47.40 11.49 L -47.70 11.08 L -48.38 10.73 L -48.28 10.25 L -48.40 9.81 L -48.39 9.36 L -49.25 8.99 L -48.61 8.47 L -48.30 7.99 L -48.03 7.51 L -48.39 7.09 L -48.57 6.65 L -47.97 6.17 L -48.32 5.74 L -48.83 5.31 L -48.95 4.86 L -48.41 4.40 L -48.13 3.95 L -48.98 3.51 L -49.07 3.06 L -48.58 2.62 L -48.49 2.17 L -48.76 1.71 L -49.01 1.25 L -48.83 0.81 L -48.67 0.37 L -49.04 -0.10 L -48.72 -0.53 L -48.52 -0.96 L -48.27 -1.38 L -48.87 -1.89 L -49.21 -2.39 L -48.31 -2.72 L -48.40 -3.19 L -48.28 -3.62 L -48.31 -4.07 L -48.54 -4.57 L -48.07 -4.93 L -47.74 -5.33 L -47.88 -5.80 L -48.10 -6.30 L -48.34 -6.81 L -48.09 -7.21 L -47.74 -7.59 L -47.51 -7.99 L -47.27 -8.38 L -47.06 -8.78 L -47.48 -9.36 L -46.36 -9.50 L -46.75 -10.06 L -45.96 -10.28 L -45.45 -10.57 L -45.30 -10.98 L -45.33 -11.44 L -45.11 -11.82 L -44.48 -12.05 L -44.40 -12.46 L -43.81 -12.70 L -43.39 -12.98 L -43.24 -13.37 L -43.07 -13.75 L -42.87 -14.11 L -43.07 -14.65 L -42.13 -14.69 L -42.48 -15.30 L -42.57 -15.80 L -41.85 -15.92 L -42.44 -16.67 L -41.68 -16.75 L -41.87 -17.31 L -42.10 -17.90 L -41.55 -18.08 L -42.12 -18.87 L -42.32 -19.47 L -41.71 -19.61 L -42.32 -20.46 L -42.64 -21.15 L -42.35 -21.49 L -41.33 -21.37 L -41.46 -21.96 L -40.73 -22.00 L -40.04 -22.05 L -40.08 -22.58 L -38.97 -22.33 L -38.51 -22.52 L -38.54 -23.04 L -38.38 -23.44 L -37.99 -23.66 L -37.15 -23.53 L -37.37 -24.22 L -37.05 -24.48 L -36.37 -24.46 L -36.60 -25.17 L -35.99 -25.19 L -35.70 -25.48 L -36.00 -26.27 L -35.50 -26.37 L -35.73 -27.13 L -35.08 -27.09 L -35.36 -27.91 L -35.23 -28.35 L -34.40 -28.13 L -34.45 -28.75 L -34.15 -29.03 L -34.15 -29.62 L -33.65 -29.70 L -33.69 -30.35 L -33.18 -30.41 L -33.29 -31.14 L -32.71 -31.12 L -32.30 -31.28 L -31.94 -31.50 L -31.95 -32.15 L -31.34 -32.06 L -31.51 -32.92 L -31.22 -33.23 L -30.53 -33.03 L -30.26 -33.36 L -30.39 -34.21 L -30.07 -34.49 L -29.41 -34.29 L -29.70 -35.42 L -28.81 -34.89 L -28.88 -35.72 L -28.48 -35.88 L -27.98 -35.89 L -27.28 -35.58 L -27.01 -35.91 L -26.32 -35.59 L -26.08 -35.98 L -25.62 -36.00 L -25.19 -36.07 L -24.69 -36.01 L -24.63 -36.72 L -24.29 -36.94 L -23.88 -37.05 L -23.39 -36.97 L -23.06 -37.21 L -22.75 -37.49 L -22.37 -37.62 L -21.96 -37.71 L -21.77 -38.25 L -21.49 -38.61 L -20.99 -38.49 L -20.98 -39.48 L -20.49 -39.38 L -20.32 -40.03 L -19.64 -39.45 L -19.54 -40.29 L -19.16 -40.47 L -18.74 -40.52 L -18.32 -40.56 L -17.92 -40.65 L -17.41 -40.42 L -17.08 -40.70 L -16.72 -40.90 L -16.09 -40.24 L -15.73 -40.44 L -15.41 -40.74 L -14.98 -40.70 L -14.54 -40.58 L -14.17 -40.76 L -13.80 -40.89 L -13.49 -41.33 L -13.15 -41.60 L -12.73 -41.58 L -12.40 -41.95 L -12.10 -42.49 L -11.62 -42.13 L -11.39 -43.13 L -10.79 -42.07 L -10.48 -42.62 L -10.01 -42.21 L -9.67 -42.66 L -9.21 -42.26 L -8.79 -42.07 L -8.41 -42.24 L -7.97 -41.87 L -7.63 -42.43 L -7.19 -41.92 L -6.84 -42.41 L -6.48 -43.02 L -6.04 -42.38 L -5.66 -42.56 L -5.29 -43.28 L -4.87 -42.69 L -4.48 -42.99 L -4.09 -43.65 L -3.69 -43.28 L -3.29 -43.20 L -2.89 -43.18 L -2.51 -42.60 L -2.09 -43.34 L -1.70 -43.30 L -1.36 -42.16 L -0.97 -42.17 L -0.57 -42.38 L -0.19 -42.24 L 0.26 -42.82 L 0.57 -42.06 L 0.97 -42.08 L 1.42 -42.58 L 1.76 -42.21 L 2.16 -42.29 L 2.69 -43.20 L 3.04 -42.82 L 3.41 -42.68 L 3.83 -42.80 L 4.22 -42.69 L 4.46 -41.92 L 4.94 -42.31 L 5.15 -41.44 L 5.63 -41.80 L 5.85 -41.06 L 6.29 -41.24 L 6.72 -41.37 L 7.04 -41.08 L 7.25 -40.42 L 7.73 -40.72 L 8.01 -40.32 L 8.49 -40.59 L 8.67 -39.89 L 9.11 -40.05 L 9.62 -40.36 L 10.06 -40.48 L 10.30 -40.01 L 10.57 -39.63 L 11.14 -40.09 L 11.60 -40.22 L 11.80 -39.67 L 12.03 -39.25 L 12.42 -39.19 L 12.74 -38.98 L 13.37 -39.48 L 13.32 -38.44 L 14.04 -39.10 L 14.38 -38.93 L 14.74 -38.80 L 14.93 -38.33 L 15.39 -38.40 L 15.62 -38.01 L 15.99 -37.90 L 16.13 -37.36 L 15.62 -35.67 L 11.00 -26.82 L 11.23 -26.69 L 11.46 -26.55 L 17.19 -35.51 L 18.13 -36.35 L 18.78 -36.67 L 18.90 -36.15 L 19.23 -35.98 L 19.93 -36.35 L 20.20 -36.07 L 19.82 -34.86 L 20.12 -34.64 L 20.54 -34.60 L 20.69 -34.18 L 20.77 -33.68 L 21.09 -33.50 L 20.82 -32.56 L 20.96 -32.17 L 21.14 -31.83 L 21.18 -31.33 L 21.68 -31.39 L 21.83 -31.02 L 21.74 -30.39 L 22.02 -30.19 L 22.67 -30.39 L 22.59 -29.79 L 22.96 -29.68 L 23.06 -29.29 L 23.77 -29.53 L 24.11 -29.38 L 24.55 -29.31 L 24.77 -29.04 L 25.54 -29.28 L 25.61 -28.87 L 25.89 -28.64 L 26.56 -28.77 L 27.09 -28.76 L 27.36 -28.51 L 28.14 -28.69 L 28.85 -28.80 L 28.89 -28.35 L 28.57 -27.62 L 28.53 -27.13 L 28.48 -26.63 L 28.88 -26.48 L 28.65 -25.86 L 28.82 -25.54 L 28.79 -25.09 L 29.11 -24.89 L 29.50 -24.73 L 29.60 -24.36 L 30.06 -24.25 L 29.78 -23.64 L 29.96 -23.35 L 30.30 -23.14 L 30.53 -22.87 L 31.37 -22.96 L 31.56 -22.67 L 31.43 -22.18 L 32.03 -22.11 L 31.62 -21.48 L 32.39 -21.49 L 32.16 -20.97 L 32.87 -20.93 L 32.98 -20.59 L 32.43 -19.92 L 33.16 -19.88 L 33.17 -19.49 L 33.35 -19.19 L 33.03 -18.66 L 33.46 -18.47 L 33.26 -18.00 L 33.53 -17.74 L 34.27 -17.66 L 34.11 -17.21 L 34.07 -16.82 L 34.70 -16.68 L 34.90 -16.38 L 34.37 -15.82 L 34.91 -15.63 L 34.65 -15.18 L 35.94 -15.22 L 35.07 -14.58 L 35.97 -14.48 L 36.46 -14.25 L 36.58 -13.91 L 36.03 -13.39 L 35.40 -12.87 L 35.92 -12.64 L 36.11 -12.32 L 35.85 -11.91 L 35.52 -11.48 L 35.74 -11.17 L 35.28 -10.73 L 36.21 -10.56 L 35.54 -10.09 L 36.41 -9.89 L 35.79 -9.44 L 36.63 -9.22 L 36.76 -8.89 L 36.19 -8.47 L 37.12 -8.23 L 36.08 -7.77 L 36.47 -7.46 L 36.83 -7.15 L 36.78 -6.80 L 37.00 -6.48 L 37.34 -6.15 L 37.31 -5.80 L 36.86 -5.43 L 36.23 -5.07 L 36.14 -4.73 L 36.86 -4.41 L 36.04 -4.06 L 35.68 -3.72 L 36.37 -3.39 L 35.73 -3.06 L 36.25 -2.72 L 36.54 -2.37 L 36.31 -2.05 L 36.42 -1.71 L 36.96 -1.34 L 36.01 -1.06 L 36.25 -0.71 L 36.28 -0.37 L 36.35 -0.03 L 36.58 0.33 L 37.78 0.81 L 36.82 1.04 L 36.81 1.38 L 37.19 1.78 L 36.26 1.98 L 36.51 2.36 L 36.10 2.63 L 35.87 2.92 L 36.52 3.39 L 36.13 3.65 L 36.65 4.10 L 36.33 4.38 L 35.58 4.55 L 35.81 4.94 L 35.93 5.32 L 35.97 5.67 L 36.42 6.15 L 36.11 6.41 L 35.93 6.71 L 34.86 6.74 L 34.68 7.02 L 35.15 7.52 L 34.01 7.48 L 33.75 7.73 L 33.81 8.09 L 34.41 8.65 L 33.93 8.82 L 33.82 9.12 L 33.49 9.34 L 33.03 9.50 L 33.28 9.94 L 33.14 10.23 L 32.63 10.35 L 32.83 10.79 L 32.70 11.08 L 33.11 11.62 L 33.51 12.18 L 33.22 12.40 L 33.13 12.72 L 33.59 13.32 L 33.28 13.54 L 33.44 14.00 L 32.22 13.70 L 32.24 14.09 L 31.50 14.03 L 31.36 14.32 L 31.67 14.88 L 31.40 15.09 L 31.19 15.33 L 31.16 15.69 L 30.44 15.61 L 30.53 16.04 L 29.84 15.96 L 29.75 16.28 L 29.24 16.29 L 29.42 16.81 L 28.84 16.76 L 29.33 17.51 L 28.81 17.51 L 28.25 17.47 L 27.96 17.63 L 28.26 18.26 L 27.39 17.95 L 27.98 18.84 L 27.14 18.52 L 26.66 18.50 L 26.85 19.08 L 26.90 19.53 L 26.52 19.60 L 25.80 19.33 L 26.11 20.04 L 25.16 19.53 L 25.24 20.03 L 24.96 20.17 L 25.04 20.68 L 24.89 20.95 L 24.22 20.66 L 23.96 20.82 L 24.01 21.31 L 23.93 21.66 L 24.09 22.30 L 24.03 22.70 L 23.98 23.11 L 23.14 22.57 L 23.18 23.10 L 23.10 23.48 L 23.17 24.07 L 23.73 25.32 L 22.50 24.19 L 16.91 17.02 L 15.41 15.30 L 15.75 16.13 L 20.48 23.40 L 20.80 24.39 L 20.18 23.97 L 19.73 23.81 L 19.82 24.49 L 19.18 24.00 L 19.06 24.36 L 18.95 24.73 L 18.34 24.25 L 18.30 24.74 L 17.67 24.19 L 17.60 24.63 L 17.76 25.53 L 17.13 24.94 L 17.11 25.51 L 16.69 25.30 L 16.67 25.90 L 16.78 26.78 L 16.74 27.39 L 16.41 27.39 L 15.95 27.07 L 16.07 28.08 L 15.99 28.64 L 15.54 28.35 L 15.26 28.44 L 15.23 29.20 L 15.27 30.16 L 14.53 29.05 L 14.21 29.05 L 13.97 29.26 L 13.64 29.21 L 13.55 29.89 L 13.18 29.72 L 12.72 29.24 L 12.50 29.53 L 12.40 30.26 L 12.13 30.41 L 11.70 29.98 L 11.26 29.43 L 10.97 29.46 L 10.75 29.80 L 10.55 30.24 L 10.41 30.99 L 9.93 30.13 L 9.85 31.29 L 9.46 30.79 L 9.21 31.13 L 8.77 30.31 L 8.69 31.65 L 8.39 31.66 L 7.90 30.32 L 7.63 30.49 L 7.42 31.15 L 7.17 31.64 L 6.73 30.19 L 6.50 30.86 L 6.21 30.88 L 5.93 30.98 L 5.60 30.34 L 5.33 30.60 L 5.09 31.67 L 4.77 31.07 L 4.48 31.12 L 4.19 30.61 L 3.90 30.89 L 3.62 30.95 L 3.33 30.97 L 3.04 31.33 L 2.75 31.36 L 2.44 31.85 L 2.18 30.97 L 1.95 30.00 L 1.67 30.13 L 1.32 30.98 L 1.10 30.26 L 0.86 29.86 L 0.58 29.86 L 0.29 30.00 L 0.08 29.45 L -0.27 30.03 L -0.56 30.08 L -0.86 30.21 L -1.01 29.37 L -1.29 29.42 L -1.64 29.82 L -1.80 29.22 L -2.22 29.95 L -2.69 30.82 L -2.75 29.76 L -3.07 29.96 L -3.41 30.18 L -3.93 31.13 L -4.03 30.34 L -4.42 30.71 L -4.59 30.24 L -4.61 29.30 L -4.93 29.41 L -5.13 29.15 L -5.44 29.22 L -5.74 29.24 L -5.77 28.48 L -6.02 28.38 L -6.66 29.37 L -6.61 28.44 L -7.15 29.09 L -7.33 28.82 L -7.97 29.68 L -8.11 29.27 L -8.65 29.81 L -8.32 28.34 L -9.08 29.39 L -8.69 27.84 L -9.04 27.96 L -9.08 27.41 L -9.34 27.33 L -9.88 27.83 L -9.88 27.24 L -10.23 27.33 L -10.44 27.14 L -10.41 26.54 L -11.00 27.05 L -10.98 26.48 L -11.30 26.50 L -11.62 26.52 L -12.59 27.59 L -12.70 27.24 L -12.34 26.17 L -12.88 26.50 L -12.44 25.34 L -12.41 24.84 L -13.11 25.40 L -13.22 25.10 L -12.69 23.91 L -12.86 23.73 L -13.08 23.60 L -13.57 23.85 L -13.45 23.27 L -13.12 22.47 L -13.49 22.53 L -13.84 22.59 L -13.62 21.94 L -13.61 21.57 L -13.89 21.53 L -14.15 21.47 L -14.92 21.96 L -15.02 21.72 L -15.42 21.79 L -15.33 21.33 L -15.95 21.62 L -16.06 21.39 L -16.95 21.92 L -17.09 21.70 L -17.04 21.31 L -17.94 21.80 L -18.09 21.59 L -17.65 20.84 L -18.01 20.82 L -19.18 21.50 L -18.82 20.85 L -19.14 20.77 L -19.62 20.83 L -20.31 21.05 L -20.26 20.67 L -19.55 19.78 L -20.11 19.88 L -19.92 19.42 L -20.82 19.76 L -20.65 19.31 L -19.63 18.27 L -20.17 18.35 L -20.94 18.57 L -19.90 17.56 L -20.52 17.67 L -20.85 17.59 L -19.60 16.52 L -20.41 16.73 L -20.28 16.37 L -20.62 16.29 L -19.66 15.46 L -20.40 15.62 L -19.47 14.84 L -19.25 14.46 L -19.16 14.17 L -19.16 13.92 L -19.59 13.89 L -20.31 14.00 L -19.69 13.45 L -20.15 13.42 L -19.69 12.97 L -20.34 13.02 L -20.56 12.87 L -21.02 12.82 L -21.13 12.63 L -20.53 12.14 L -22.01 12.48 L -22.31 12.35 L -22.58 12.19 L -22.68 11.98 L -23.02 11.85 L -24.10 11.96 L -23.35 11.45 L -24.46 11.55 L -24.28 11.24 L -23.37 10.71 L -23.46 10.49 L -23.13 10.15 L -22.99 9.88 L -22.98 9.64 L -22.29 9.23 L -22.00 8.93 L -23.14 8.97 L -22.77 8.65 L -22.39 8.35 L -22.19 8.08 L -22.31 7.88 L -23.45 7.87 L -22.53 7.48 L -23.68 7.44 L -22.73 7.07 L -23.04 6.89 L -23.60 6.74 L -23.88 6.55 L -24.36 6.37 L -24.78 6.18 L -24.35 5.90 L -24.66 5.70 L -25.98 5.56 L -25.42 5.28 L -24.70 5.00 L -24.80 4.77 L -24.78 4.54 L -24.58 4.30 L -24.35 4.07 L -24.79 3.84 L -25.50 3.61 L -24.17 3.39 L -25.17 3.14 L -25.05 2.91 L -25.64 2.65 L -24.24 2.48 L -24.24 2.26 L -25.52 1.95 L -25.86 1.69 L -25.18 1.50 L -25.86 1.21 L -25.54 1.00 L -25.11 0.81 L -24.61 0.64 L -25.59 0.28 L -25.47 0.06 L -25.38 -0.17 L -24.71 -0.30 L -24.70 -0.53 L -24.41 -0.71 L -24.54 -0.96 L -24.95 -1.27 L -23.61 -1.23 L -23.78 -1.49 L -24.17 -1.80 L -23.20 -1.80 L -21.43 -1.58 L -12.98 0.41 L -12.95 0.29 L -12.92 0.18 L -20.84 -2.23 L -24.52 -3.53 L -23.45 -3.44 L -24.71 -4.07 L -23.90 -4.05 L -24.61 -4.53 L -24.35 -4.68 L -24.64 -5.03 L -23.92 -5.01 L -23.10 -4.94 L -22.54 -4.95 L -22.46 -5.15 L -22.19 -5.27 L -22.09 -5.45 L -22.23 -5.74 L -21.47 -5.63 L -22.45 -6.31 L -21.15 -5.93 L -22.23 -6.68 L -21.62 -6.61 L -21.53 -6.80 L -21.93 -7.24 L -21.49 -7.26 L -22.05 -7.80 L -22.05 -8.04 L -21.84 -8.17 L -21.25 -8.08 L -22.18 -8.87 L -21.86 -8.93 L -20.88 -8.59 L -22.11 -9.61 L -20.94 -9.12 L -21.84 -9.97 L -21.88 -10.26 L -21.58 -10.32 L -21.31 -10.41 L -21.91 -11.10 L -20.83 -10.60 L -20.36 -10.52 L -20.74 -11.07 L -19.92 -10.71 L -20.02 -11.06 L -20.17 -11.45 L -19.53 -11.20 L -19.39 -11.36 L -19.62 -11.82 L -19.28 -11.81 L -18.09 -11.04 L -17.65 -10.91 L -17.50 -11.03 L -17.34 -11.14 L -17.82 -11.86 L -17.53 -11.85 L -16.59 -11.20 L -17.20 -12.08 L -17.10 -12.25 L -16.07 -11.46 L -16.13 -11.79 L -16.21 -12.14 L -16.34 -12.56 L -16.04 -12.51 L -16.83 -13.70 L -16.29 -13.38 L -16.20 -13.57 L -16.51 -14.26 L -16.19 -14.18 L -16.10 -14.38 L -16.27 -14.92 L -16.40 -15.43 L -16.09 -15.37 L -15.91 -15.47 L -15.06 -14.65 L -15.04 -14.95 L -14.69 -14.79 L -14.37 -14.66 L -14.16 -14.69 L -13.44 -13.93 L -13.66 -14.60 L -12.87 -13.69 L -12.68 -13.71 L -12.63 -13.96 L -12.43 -13.96 L -12.61 -14.62 L -12.33 -14.48 L -12.31 -14.80 L -12.39 -15.32 L -12.16 -15.28 L -11.53 -14.45 L -11.59 -14.94 L -11.34 -14.84 L -11.73 -16.04 L -11.19 -15.32 L -11.32 -16.03 L -10.86 -15.44 L -10.79 -15.73 L -10.63 -15.78 L -10.95 -17.01 L -10.54 -16.51 L -10.43 -16.72 L -10.28 -16.83 L -9.96 -16.49 L -10.24 -17.79 L -9.90 -17.40 L -9.50 -16.80 L -9.62 -17.74 L -9.56 -18.15 L -9.07 -17.22 L -9.11 -17.98 L -9.08 -18.57 L -8.91 -18.65 L -8.70 -18.59 L -8.56 -18.83 L -8.47 -19.25 L -8.25 -19.16 L -8.09 -19.33 L -7.67 -18.34 L -7.41 -17.96 L -7.22 -17.95 L -7.03 -17.86 L -6.76 -17.37 L -6.51 -16.90 L -6.49 -17.83 L -6.22 -17.23 L -5.97 -16.66 L -5.91 -17.51 L -5.66 -16.83 L -5.42 -16.15 L -5.32 -16.65 L -5.09 -15.98 L -5.06 -17.45 L -4.84 -16.69 L -4.68 -16.69 L -4.52 -16.72 L -4.37 -16.96 L -4.25 -18.33 L -4.06 -17.60 L -3.91 -18.82 L -3.73 -18.32 L -3.56 -19.35 L -3.36 -20.35 L -3.17 -20.54 L -2.99 -20.05 L -2.81 -19.81 L -2.71 -18.20 L -2.47 -19.26 L -2.42 -17.50 L -2.25 -17.50 L -2.10 -17.38 L -1.92 -17.56 L -1.77 -17.40 L -1.53 -18.10 L -1.39 -17.85 L -1.32 -17.17 L -1.04 -17.99 L -0.87 -17.97 L -0.87 -16.99 L -0.44 -18.51 L -0.49 -17.28 L -0.27 -17.60 L 0.19 -19.05 L 0.45 -19.39 L 0.32 -18.02 L 0.91 -19.79 L 0.78 -18.47 L 1.06 -18.91 L 1.20 -18.74 L 1.50 -19.19 L 1.70 -19.22 L 1.93 -19.39 L 1.88 -18.59 L 2.07 -18.61 L 2.01 -17.87 L 2.11 -17.65 L 2.26 -17.60 L 2.84 -18.72 L 3.07 -18.82 L 2.85 -17.76 L 3.16 -18.09 L 3.25 -17.87 L 3.72 -18.56 L 3.66 -17.97 L 3.91 -18.12 L 3.76 -17.36 L 3.95 -17.38 L 4.18 -17.49 L 4.60 -17.98 L 4.23 -16.83 L 4.52 -17.06 L 4.49 -16.63 L 4.67 -16.63 L 5.41 -17.67 L 4.79 -16.19 L 5.51 -17.16 L 5.44 -16.69 L 5.05 -15.70 L 5.32 -15.86 L 5.45 -15.78 L 5.47 -15.52 L 6.08 -16.19 L 5.48 -14.98 L 5.47 -14.71 L 5.84 -14.99 L 5.98 -14.93 L 6.18 -14.96 L 6.70 -15.41 L 6.86 -15.38 L 6.44 -14.56 L 7.45 -15.63 L 7.60 -15.56 L 7.34 -14.98 L 8.05 -15.60 L 7.44 -14.61 L 7.60 -14.57 L 8.13 -14.95 L 8.28 -14.88 L 8.73 -15.14 L 8.60 -14.76 L 9.19 -15.16 L 8.84 -14.56 L 9.36 -14.87 L 9.54 -14.82 L 9.12 -14.17 L 9.39 -14.22 L 9.15 -13.77 L 9.18 -13.58 L 9.69 -13.85 L 10.09 -14.00 L 9.71 -13.44 L 10.52 -13.95 L 10.05 -13.33 L 10.47 -13.48 L 10.88 -13.62 L 10.46 -13.07 L 10.04 -12.54 L 10.89 -13.01 L 10.74 -12.70 L 10.97 -12.68 L 10.11 -11.86 L 10.89 -12.24 L 10.47 -11.75 L 11.73 -12.45 L 11.62 -12.18 L 12.26 -12.42 L 11.85 -11.95 L 11.45 -11.52 L 10.73 -10.89 L 10.67 -10.69 L 10.93 -10.68 L 11.39 -10.79 L 10.41 -10.06 L 10.94 -10.20 L 10.70 -9.91 L 10.24 -9.52 L 9.96 -9.23 L 9.74 -8.98 L 9.23 -8.59 L 8.83 -8.27 L 9.54 -8.48 L 9.42 -8.30 L 9.06 -8.01 L 9.51 -8.09 L 3.43 -5.38 L 1.76 -4.63 L 4.79 -5.82 L 9.75 -7.69 L 10.39 -7.81 L 10.99 -7.91 L 11.30 -7.89 L 10.67 -7.54 L 12.21 -7.93 L 12.44 -7.86 L 11.84 -7.53 L 12.68 -7.65 L 12.99 -7.60 L 12.97 -7.45 L 12.98 -7.31 L 13.62 -7.33 L 12.54 -6.91 L 12.88 -6.86 L 13.07 -6.76 L 12.87 -6.58 L 12.77 -6.42 L 13.00 -6.33 L 13.01 -6.19 L 12.54 -5.97 L 12.12 -5.77 L 12.35 -5.68 L 12.52 -5.58 L 11.73 -5.34 L 13.00 -5.39 L 11.96 -5.13 L 12.50 -5.07 L 12.55 -4.95 L 12.55 -4.82 L 12.14 -4.66 L 11.79 -4.52 L 12.57 -4.45 L 11.79 -4.28 L 11.63 -4.16 L 11.97 -4.06 L 12.53 -3.96 L 11.78 -3.82 L 11.57 -3.71 L 12.84 -3.60 L 12.24 -3.48 L 12.72 -3.35 L 12.79 -3.23 L 12.92 -3.10 L 12.74 -2.98 L 12.77 -2.86 L 12.51 -2.76 L 12.67 -2.63 L 12.52 -2.52 L 13.49 -2.31 L 12.76 -2.26 L 13.09 -2.10 L 14.70 -1.77 L 14.19 -1.70 L 14.74 -1.49 L 13.13 -1.60 L 13.35 -1.43 L 13.20 -1.33 L 12.47 -1.34 L 12.40 -1.24 L 12.39 -1.12 L 11.73 -1.15 L 11.97 -0.98 L 11.98 -0.87 L 10.97 -1.00 L 11.90 -0.66 L 11.68 -0.60 L 11.78 -0.46 L 10.76 -0.64 L 11.58 -0.30 L 10.97 -0.37 L 10.89 -0.29 L 12.06 0.20 L 12.76 0.55 L 12.03 0.42 L 13.16 0.95 L 13.32 1.14 L 13.12 1.20 L 13.78 1.59 L 13.82 1.75 L 12.37 1.28 L 11.76 1.15 L 12.11 1.42 L 12.21 1.59 L 11.97 1.61 L 10.99 1.27 L 10.86 1.32 L 10.81 1.40 L 10.33 1.27 L 10.00 1.21 L 10.14 1.38 L 10.46 1.66 L 10.59 1.85 L 10.61 1.98 L 9.93 1.69 L 10.58 2.19 L 11.29 2.74 L 11.27 2.86 L 10.42 2.44 L 10.64 2.70 L 10.61 2.80 L 10.58 2.90 L 10.91 3.26 L 11.34 3.70 L 11.91 4.25 L 12.10 4.53 L 11.43 4.18 L 11.90 4.69 L 12.16 5.05 L 11.42 4.61 L 11.08 4.48 L 11.72 5.16 L 11.00 4.71 L 11.09 4.93 L 11.40 5.36 L 10.63 4.82 L 10.80 5.13 L 11.01 5.48 L 10.96 5.59 L 10.67 5.47 L 10.48 5.44 L 10.31 5.42 L 9.91 5.16 L 10.01 5.42 L 10.10 5.68 L 10.30 6.05 L 9.61 5.45 L 10.56 6.69 L 10.01 6.24 L 9.62 5.94 L 9.44 5.89 L 9.78 6.47 L 9.07 5.75 L 9.43 6.38 L 8.88 5.83 L 8.77 5.86 L 8.45 5.58 L 8.30 5.53 L 7.89 5.11 L 8.16 5.65 L 8.13 5.78 L 7.70 5.29 L 7.82 5.63 L 7.44 5.20 L 7.38 5.26 L 7.41 5.47 L 7.39 5.59 L 7.52 6.00 L 7.66 6.42 L 7.57 6.46 L 7.43 6.39 L 7.72 7.14 L 7.47 6.88 L 7.63 7.41 L 7.08 6.49 L 7.14 6.84 L 7.46 7.74 L 7.33 7.70 L 6.79 6.71 L 6.71 6.74 L 6.88 7.40 L 6.64 7.04 L 6.29 6.41 L 6.40 6.92 L 6.06 6.25 L 6.27 7.09 L 6.19 7.12 L 6.03 6.93 L 5.82 6.54 L 5.75 6.60 L 5.36 5.57 L 5.34 5.75 L 5.34 6.00 L 5.12 5.50 L 5.29 6.40 L 4.97 5.44 L 5.14 6.42 L 5.02 6.23 L 5.10 6.93 L 4.94 6.56 L 4.76 6.06 L 4.78 6.55 L 4.79 6.99 L 4.78 7.46 L 4.92 8.87 L 4.74 8.30 L 4.76 9.11 L 4.46 7.52 L 4.37 7.47 L 3.66 1.30 L 3.18 -3.58 L 3.54 0.36 L 3.95 6.03 L 3.89 6.06 L 3.84 6.36 L 3.72 5.21 L 3.66 4.86 L 3.60 4.71 L 3.55 4.41 L 3.51 5.34 L 3.45 5.66 L 3.39 5.69 L 3.33 5.80 L 3.27 5.87 L 3.26 4.88 L 3.19 5.17 L 3.12 5.40 L 3.05 5.59 L 2.97 5.93 L 2.86 6.48 L 2.77 6.68 L 2.73 6.49 L 2.52 7.58 L 2.40 7.91 L 2.31 7.97 L 2.09 8.87 L 2.22 7.60 L 1.93 8.76 L 1.93 8.33 L 1.99 7.63 L 1.80 8.19 L 1.68 8.32 L 1.54 8.59 L 1.52 8.32 L 1.67 7.41 L 1.60 7.41 L 1.32 8.15 L 1.47 7.36 L 1.43 7.23 L 1.24 7.61 L 1.21 7.46 L 1.37 6.78 L 1.14 7.24 L 1.21 6.86 L 1.08 7.02 L 0.80 7.56 L 1.11 6.59 L 0.75 7.32 L 1.15 6.19 L 0.97 6.46 L 0.59 7.17 L 0.66 6.86 L 0.79 6.43 L 0.37 7.16 L 0.72 6.30 L 0.52 6.59 L 0.70 6.10 L 0.66 6.06 L 0.19 6.80 L 0.60 5.95 L 0.15 6.63 L 0.36 6.16 L -0.19 6.96 L -0.34 7.09 L -0.33 6.94 L -0.71 7.40 L -0.66 7.21 L -0.77 7.24 L -0.22 6.33 L -0.35 6.41 L 0.11 5.67 L -0.21 6.03 L 0.44 5.07 L -0.23 5.88 L 0.57 4.77 L 0.59 4.69 L 0.69 4.51 L 0.98 4.11 L 0.92 4.14 L 0.65 4.39 L 0.75 4.24 L 0.45 4.52 L -0.12 5.08 L 0.63 4.24 L 0.46 4.37 L -0.51 5.30 L -0.18 4.90 L -0.26 4.93 L -0.71 5.30 L -1.23 5.71 L -1.45 5.85 L -2.08 6.33 L -2.49 6.59 L -1.69 5.83 L -2.57 6.49 L -1.06 5.18 L -1.36 5.36 L -1.33 5.27 L -1.02 4.97 L -1.35 5.17 L -0.60 4.56 L -1.27 4.99 L -1.64 5.19 L -0.37 4.27 L -0.57 4.37 L -1.06 4.64 L -1.20 4.68 L -1.69 4.94 L -1.63 4.85 L -1.73 4.86 L -2.20 5.07 L -2.22 5.02 L -2.45 5.09 L -2.60 5.11 L -1.55 4.51 L -3.02 5.20 L -2.81 5.03 L -2.83 4.98 L -2.02 4.55 L -1.83 4.42 L -2.13 4.50 L -1.77 4.30 L -2.42 4.52 L -3.00 4.70 L -1.82 4.19 L -2.71 4.48 L -1.78 4.10 L -2.17 4.19 L -1.92 4.07 L -1.84 4.00 L -1.91 3.98 L -1.07 3.70 L -1.05 3.67 L -1.02 3.63 L -1.76 3.80 L -0.58 3.47 L -0.76 3.49 L -0.95 3.51 L -0.78 3.45 L -0.76 3.43 L -0.85 3.43 L -2.03 3.61 L -2.20 3.61 L -2.26 3.58 L -1.83 3.48 L -2.56 3.55 L -2.31 3.48 L -2.13 3.43 L -3.40 3.51 L -2.70 3.41 L -3.01 3.39 L -3.84 3.40 L -3.12 3.31 L -4.27 3.31 L -3.39 3.24 L -3.66 3.19 L -3.40 3.15 L -2.90 3.11 L -3.69 3.05 L -4.02 2.99 L -4.37 2.93 L -3.45 2.92 L -3.94 2.85 L -3.51 2.83 L -3.98 2.74 L -3.35 2.76 L -4.24 2.62 L -4.18 2.57 L -4.23 2.51 L -3.28 2.61 L -2.86 2.64 L -2.86 2.60 L -2.73 2.59 L -3.50 2.40 L -2.58 2.56 L -2.64 2.52 L -2.75 2.46 L -2.56 2.47 L -2.14 2.56 L -1.92 2.59 L -2.06 2.53 L -2.15 2.48 L -2.17 2.45 L -1.94 2.51 L -1.76 2.54 L -1.96 2.45 L -2.07 2.39 L -1.68 2.52 L -1.78 2.47 L -1.77 2.46 L -1.88 2.39 L -2.14 2.25 L -2.06 2.27 L -2.45 2.06 L -2.56 1.98 L -2.44 2.01 L -3.03 1.68 L -2.75 1.79 L -3.01 1.61 L -3.16 1.49 L -3.65 1.16 L -3.53 1.19 L -3.68 1.05 L -3.66 1.01 L -3.50 1.06 L -3.16 1.25 L -3.07 1.27 L -2.86 1.38 L -3.03 1.23 L -3.13 1.11 L -2.96 1.20 L -2.84 1.26 L -2.95 1.13 L -3.05 1.01 L -3.01 1.00 L -2.99 0.98 L -3.13 0.79 L -4.87 -0.79 L -5.08 -0.90 L -5.13 -0.85 L -5.15 -0.78 L -5.32 -0.83 L -5.49 -0.87 L -5.43 -0.74 L -5.33 -0.57 L -5.49 -0.60 L -5.71 -0.67 L -5.57 -0.48 L -5.54 -0.37 L -5.25 -0.10 L -5.16 0.04 L -5.20 0.10 L -5.40 0.05 L -5.33 0.17 L -5.88 -0.07 L -6.08 -0.10 L -6.39 -0.18 L -6.17 0.03 L -6.81 -0.21 L -6.73 -0.08 L -6.89 -0.06 L -7.32 -0.17 L -7.29 -0.05 L -7.60 -0.09 L -7.76 -0.05 L -7.79 0.04 L -7.93 0.09 L -7.58 0.33 L -7.73 0.37 L -7.96 0.39 L -7.83 0.54 L -7.63 0.71 L -7.69 0.78 L -7.80 0.85 L -7.98 0.90 L -7.79 1.05 L -7.40 1.25 L -7.24 1.38 L -7.38 1.43 L -7.46 1.51 L -6.57 1.78 L -7.36 1.71 L -7.26 1.82 L -7.28 1.91 L -6.87 2.06 L -5.94 2.27 L -6.01 2.34 L -5.96 2.41 L -6.87 2.39 L -6.24 2.53 L -6.73 2.57 L -6.31 2.68 L -6.81 2.73 L -5.90 2.86 L -6.25 2.92 L -6.58 2.99 L -7.37 3.06 L -6.88 3.15 L -6.61 3.23 L -6.88 3.32 L -6.00 3.37 L -7.14 3.50 L -6.42 3.55 L -7.23 3.69 L -7.53 3.81 L -6.82 3.83 L -8.08 4.05 L -7.89 4.13 L -7.62 4.20 L -8.33 4.40 L -7.88 4.44 L -7.92 4.55 L -8.06 4.67 L -9.22 4.99 L -9.29 5.13 L -9.24 5.24 L -9.04 5.32 L -9.20 5.47 L -9.35 5.63 L -8.13 5.44 L -8.84 5.75 L -8.77 5.85 L -8.71 5.95 L -7.83 5.80 L -7.85 5.92 L -7.73 5.99 L -7.43 6.00 L -7.78 6.24 L -6.80 5.99 L -7.64 6.42 L -6.40 6.04 L -6.92 6.36 L -7.52 6.72 L -7.10 6.66 L -7.34 6.88 L -7.09 6.88 L -6.21 6.58 L -6.17 6.67 L -5.90 6.64 L -7.29 7.46 L -6.17 7.00 L -6.25 7.15 L -6.41 7.36 L -6.35 7.44 L -6.74 7.79 L -6.77 7.93 L -6.62 7.97 L -7.04 8.36 L -7.09 8.53 L -7.49 8.94 L -7.60 9.17 L -6.24 8.38 L -6.52 8.71 L -7.10 9.28 L -6.25 8.80 L -6.48 9.12 L -6.08 8.95 L -5.95 8.99 L -6.14 9.29 L -4.53 8.11 L -5.31 8.90 L -4.41 8.25 L -4.70 8.65 L -5.22 9.25 L -5.33 9.50 L -5.74 10.04 L -6.07 10.53 L -6.04 10.68 L -5.59 10.40 L -6.44 11.45 L -6.48 11.70 L -5.61 10.97 L -6.06 11.65 L -6.23 12.04 L -6.01 12.00 L -6.14 12.37 L -6.07 12.51 L -5.64 12.22 L -5.41 12.15 L -5.26 12.18 L -4.31 11.18 L -4.85 12.09 L -4.05 11.24 L -4.23 11.70 L -3.63 11.06 L -3.61 11.24 L -2.92 10.44 L -2.87 10.56 L -2.68 10.47 L -2.91 11.04 L -2.74 10.98 L -2.74 11.20 L -3.13 12.10 L -2.76 11.71 L -3.05 12.49 L -2.48 11.72 L -2.79 12.55 L -2.67 12.60 L -2.32 12.19 L -2.36 12.56 L -1.84 11.78 L -2.09 12.59 L -1.79 12.25 L -1.55 12.01 L -1.75 12.80 L -1.75 13.14 L -1.18 12.08 L -1.37 12.88 L -0.88 11.98 L -0.98 12.59 L -0.92 12.81 L -0.68 12.50 L -0.72 13.03 L -0.38 12.40 L -0.22 12.31 L -0.23 12.75 L -0.07 12.68 L 0.26 11.94 L 0.17 12.73 L 0.29 12.78 L 0.63 11.92 L 0.81 11.70 L 0.86 12.01 L 0.94 12.19 L 0.94 12.78 L 1.20 12.12 L 1.39 11.73 L 1.31 12.93 L 1.64 11.69 L 1.61 12.62 L 1.73 12.71 L 1.81 13.07 L 1.81 14.19 L 1.97 14.01 L 2.09 14.23 L 2.18 14.80 L 2.30 15.16 L 2.44 15.37 L 2.58 15.62 L 2.73 15.91 L 2.92 14.93 L 3.07 15.01 L 3.22 15.12 L 3.38 15.16 L 3.53 15.48 L 3.70 16.41 L 3.86 16.11 L 4.02 15.95 L 4.17 15.59 L 4.27 14.42 L 4.43 14.71 L 4.59 14.73 L 5.21 20.39 L 5.78 24.30 L 5.53 19.40 L 5.03 13.21 L 5.16 13.13 L 5.08 11.51 L 5.32 12.29 L 5.35 11.69 L 5.71 13.07 L 5.93 13.50 L 6.15 13.90 L 6.39 14.35 L 6.43 13.81 L 6.49 13.39 L 6.79 14.04 L 6.89 13.79 L 7.28 14.72 L 7.18 13.71 L 7.56 14.55 L 7.57 13.99 L 7.79 14.18 L 7.99 14.29 L 7.81 13.19 L 7.97 13.19 L 7.97 12.73 L 8.04 12.46 L 8.17 12.41 L 8.60 13.17 L 8.48 12.42 L 8.81 12.85 L 8.68 12.13 L 8.65 11.68 L 9.05 12.24 L 9.18 12.19 L 8.86 11.10 L 8.94 10.96 L 9.47 11.77 L 9.75 12.01 L 9.41 10.99 L 9.79 11.41 L 9.75 11.03 L 10.26 11.67 L 10.33 11.49 L 10.45 11.40 L 10.80 11.71 L 11.15 12.00 L 11.33 11.99 L 11.57 12.08 L 11.72 12.01 L 11.55 11.45 L 11.87 11.65 L 11.65 11.03 L 11.83 11.02 L 12.30 11.41 L 12.09 10.85 L 12.14 10.65 L 12.02 10.23 L 12.12 10.11 L 11.77 9.40 L 12.33 9.88 L 11.81 9.00 L 12.35 9.42 L 12.36 9.21 L 12.16 8.75 L 11.81 8.13 L 12.95 9.20 L 12.45 8.43 L 12.84 8.63 L 13.12 8.71 L 13.41 8.79 L 13.19 8.35 L 13.20 8.15 L 13.19 7.94 L 13.09 7.63 L 13.22 7.55 L 13.60 7.71 L 13.95 7.82 L 13.35 7.09 L 13.84 7.33 L 14.10 7.35 L 13.55 6.69 L 14.36 7.17 L 14.19 6.84 L 13.61 6.19 L 14.04 6.34 L 14.67 6.63 L 14.16 6.06 L 14.51 6.13 L 15.23 6.46 L 15.83 6.69 L 16.31 6.82 L 16.43 6.69 L 16.55 6.57 L 16.91 6.60 L 16.21 5.95 L 16.34 5.84 L 17.18 6.15 L 17.98 6.42 L 17.43 5.89 L 17.59 5.78 L 17.86 5.72 L 18.30 5.76 L 18.57 5.69 L 18.37 5.38 L 18.02 5.00 L 18.09 4.84 L 18.08 4.64 L 17.22 4.04 L 17.10 3.80 L 17.31 3.71 L 17.78 3.73 L 17.28 3.33 L 15.93 2.60 L 16.08 2.50 L 16.85 2.63 L 16.75 2.42 L 17.01 2.34 L 18.23 2.60 L 17.60 2.20 L 18.38 2.28 L 19.64 2.49 L 19.65 2.30 L 19.13 1.95 L 20.02 2.01 L 19.08 1.55 L 19.26 1.41 L 19.11 1.19 L 20.12 1.24 L 19.18 0.83 L 19.25 0.65 L 19.55 0.53 L 18.96 0.22 L 19.00 0.05 L 18.99 -0.14 L 18.31 -0.44 L 18.21 -0.63 L 18.47 -0.77 L 16.91 -1.17 L 17.50 -1.25 L 17.03 -1.48 L 18.68 -1.45 L 19.04 -1.59 L 18.33 -1.84 L 19.33 -1.93 L 19.21 -2.12 L 19.39 -2.30 L 19.15 -2.49 L 19.19 -2.68 L 19.03 -2.87 L 19.17 -3.04 L 19.25 -3.23 L 19.73 -3.41 L 19.13 -3.60 L 20.40 -3.79 L 20.19 -3.99 L 19.43 -4.16 L 19.98 -4.37 L 20.31 -4.58 L 20.13 -4.76 L 19.33 -4.91 L 20.09 -5.15 L 19.71 -5.32 L 19.28 -5.47 L 19.24 -5.66 L 19.25 -5.85 L 19.76 -6.11 L 18.68 -6.16 L 19.91 -6.52 L 19.07 -6.59 L 19.19 -6.81 L 19.37 -7.03 L 18.89 -7.14 L 18.36 -7.23 L 18.30 -7.41 L 18.47 -7.64 L 18.31 -7.80 L 18.03 -7.92 L 18.15 -8.14 L 18.41 -8.40 L 17.24 -8.29 L 17.80 -8.63 L 17.72 -8.80 L 17.61 -8.96 L 17.83 -9.23 L 18.57 -9.66 L 17.87 -9.64 L 18.00 -9.88 L 19.43 -10.59 L 18.69 -10.54 L 18.89 -10.83 L 19.38 -11.24 L 19.90 -11.67 L 24.73 -13.85 L 27.63 -15.34 L 25.83 -14.90 L 19.62 -12.50 L 19.93 -12.88 L 19.44 -12.90 L 19.18 -13.02 L 19.75 -13.54 L 19.19 -13.52 L 18.54 -13.43 L 18.16 -13.48 L 17.72 -13.49 L 17.11 -13.39 L 16.70 -13.40 L 17.07 -13.84 L 15.91 -13.41 L 16.20 -13.81 L 16.28 -14.09 L 16.05 -14.19 L 15.14 -13.85 L 14.56 -13.71 L 13.96 -13.53 L 14.41 -14.06 L 14.10 -14.07 L 15.17 -15.05 L 14.54 -14.85 L 15.12 -15.51 L 14.05 -14.97 L 14.07 -15.23 L 13.72 -15.20 L 14.35 -15.94 L 13.71 -15.69 L 13.07 -15.41 L 13.26 -15.82 L 13.45 -16.24 L 12.74 -15.88 L 13.33 -16.66 L 12.70 -16.36 L 12.87 -16.78 L 13.14 -17.30 L 12.92 -17.38 L 12.43 -17.18 L 12.45 -17.48 L 11.78 -17.08 L 11.70 -17.29 L 11.96 -17.85 L 11.35 -17.49 L 11.68 -18.14 L 11.29 -18.00 L 11.46 -18.49 L 11.34 -18.66 L 11.59 -19.29 L 11.48 -19.48 L 10.59 -18.72 L 11.01 -19.56 L 10.47 -19.22 L 10.32 -19.37 L 11.04 -20.66 L 10.33 -20.06 L 10.20 -20.24 L 10.41 -20.91 L 10.31 -21.16 L 10.14 -21.30 L 10.21 -21.79 L 9.89 -21.72 L 8.98 -20.71 L 9.28 -21.59 L 8.98 -21.53 L 8.79 -21.63 L 8.74 -21.98 L 8.03 -21.18 L 7.63 -20.90 L 8.02 -22.05 L 7.07 -20.75 L 7.48 -21.97 L 7.33 -22.15 L 6.96 -21.89 L 6.91 -22.28 L 6.20 -21.30 L 6.27 -21.95 L 6.16 -22.23 L 6.01 -22.40 L 5.50 -21.79 L 5.40 -22.09 L 4.99 -21.65 L 5.10 -22.49 L 4.84 -22.40 L 4.79 -22.87 L 4.21 -21.94 L 4.08 -22.18 L 4.29 -23.43 L 4.08 -23.51 L 3.81 -23.41 L 3.38 -22.78 L 3.20 -22.91 L 2.77 -22.23 L 2.63 -22.51 L 2.45 -22.65 L 2.38 -23.19 L 2.13 -23.12 L 2.04 -23.66 L 1.53 -22.43 L 1.73 -24.29 L 1.22 -23.00 L 1.09 -23.42 L 1.16 -24.95 L 1.00 -25.34 L 0.55 -24.19 L 0.59 -25.77 L 0.20 -24.86 L -0.03 -24.89 L -0.14 -25.77 L -0.47 -25.14 L -0.73 -24.94 L -0.88 -25.68 L -1.13 -25.57 L -1.35 -25.78 L -1.60 -25.70 L -1.84 -25.73 L -2.19 -24.00 L -2.36 -25.07 L -2.66 -23.49 L -2.89 -23.26 L -3.12 -22.78 L -3.33 -22.98 L -3.54 -23.98 L -3.77 -25.01 L -4.00 -24.51 L -4.26 -25.72 L -4.48 -24.98 L -4.77 -26.33 L -5.04 -26.55 L -5.29 -26.56 L -5.54 -26.53 L -5.73 -25.74 L -6.11 -27.18 L -6.30 -26.46 L -6.60 -26.92 L -6.78 -26.20 L -6.94 -25.47 L -7.30 -26.26 L -7.46 -25.63 L -7.61 -24.96 L -8.00 -25.83 L -8.16 -25.29 L -8.31 -24.73 L -8.52 -24.55 L -8.75 -24.46 L -8.89 -24.00 L -8.90 -22.92 L -9.15 -22.99 L -9.34 -22.80 L -9.66 -23.12 L -9.93 -23.25 L -10.13 -23.07 L -10.36 -23.05 L -10.75 -23.51 L -11.20 -24.15 L -11.12 -23.09 L -11.46 -23.37 L -11.99 -24.18 L -12.00 -23.44 L -12.07 -22.91 L -12.75 -24.06 L -12.83 -23.57 L -13.08 -23.52 L -13.38 -23.57 L -13.37 -22.91 L -14.09 -23.98 L -14.32 -23.86 L -14.66 -23.96 L -14.59 -23.20 L -15.12 -23.73 L -14.98 -22.81 L -15.76 -23.83 L -15.90 -23.53 L -16.36 -23.83 L -16.11 -22.78 L -16.27 -22.54 L -16.74 -22.85 L -17.10 -22.96 L -17.20 -22.60 L -17.77 -23.03 L -17.95 -22.81 L -18.28 -22.83 L -18.47 -22.62 L -18.05 -21.47 L -18.64 -21.90 L -18.30 -20.89 L -18.46 -20.67 L -18.51 -20.29 L -18.53 -19.87 L -18.87 -19.91 L -18.38 -18.82 L -18.56 -18.66 L -18.62 -18.33 L -19.10 -18.56 L -19.63 -18.82 L -19.89 -18.74 L -19.91 -18.37 L -20.58 -18.77 L -20.83 -18.67 L -20.64 -18.05 L -21.77 -18.93 L -21.81 -18.58 L -22.28 -18.69 L -22.68 -18.73 L -23.08 -18.74 L -22.38 -17.64 L -22.60 -17.48 L -23.54 -18.03 L -22.92 -17.05 L -22.95 -16.71 L -23.74 -17.10 L -23.89 -16.86 L -24.05 -16.64 L -23.92 -16.16 L -23.04 -15.05 L -23.00 -14.68 L -23.53 -14.79 L -23.68 -14.59 L -23.34 -13.98 L -23.78 -14.00 L -24.16 -13.97 L -23.63 -13.25 L -24.29 -13.42 L -24.10 -12.96 L -23.28 -12.08 L -24.16 -12.39 L -24.16 -12.09 L -24.12 -11.75 L -24.42 -11.65 L -25.58 -12.10 L -24.66 -11.22 L -26.15 -11.84 L -25.42 -11.08 L -25.33 -10.74 L -26.51 -11.12 L -26.16 -10.61 L -26.18 -10.33 L -26.40 -10.15 L -27.19 -10.27 L -26.98 -9.86 L -27.59 -9.87 L -27.72 -9.63 L -27.32 -9.13 L -28.60 -9.44 L -27.51 -8.63 L -28.69 -8.87 L -28.13 -8.32 L -28.45 -8.16 L -28.54 -7.90 L -28.46 -7.57 L -28.55 -7.32 L -28.17 -6.88 L -27.52 -6.35 L -26.98 -5.87 L -27.43 -5.76 L -27.32 -5.45 L -28.20 -5.47 L -27.53 -4.98 L -28.94 -5.14 L -28.01 -4.58 L -31.84 -5.41 L -39.89 -7.35 L -39.99 -6.98 L -40.09 -6.62 L -31.76 -4.15 L -30.11 -3.45 L -29.24 -2.97 L -29.74 -2.80 L -30.02 -2.57 L -28.78 -2.04 L -29.29 -1.86 L -29.50 -1.63 L -29.31 -1.31 L -29.38 -1.05 L -28.79 -0.68 L -28.77 -0.41 L -28.72 -0.14 L -29.76 0.00 L -29.32 0.33 L -28.94 0.64 L -28.68 0.94 L -29.40 1.14 L -28.76 1.46 L -29.14 1.71 L -30.44 1.90 L -30.48 2.18 L -29.10 2.52 L -29.70 2.77 L -29.60 3.05 L -30.60 3.32 L -29.27 3.60 L -29.99 3.88 L -30.42 4.17 L -30.18 4.45 L -29.96 4.72 L -29.92 5.00 L -30.00 5.29 L -29.24 5.52 L -28.65 5.75 L -29.93 6.13 L -30.20 6.44 L -29.71 6.68 L -30.08 7.00 L -30.50 7.34 L -30.72 7.66 L -31.21 8.03 L -31.45 8.36 L -30.41 8.51 L -31.49 8.98 L -30.47 9.11 L -31.52 9.61 L -31.54 9.92 L -31.23 10.17 L -30.75 10.38 L -30.27 10.58 L -31.29 11.12 L -30.88 11.34 L -30.06 11.44 L -29.92 11.71 L -29.64 11.95 L -29.16 12.12 L -29.10 12.40 L -28.04 12.39 L -27.70 12.58 L -28.66 13.18 L -27.74 13.18 L -28.64 13.80 L -28.80 14.17 L -28.73 14.46 L -28.81 14.81 L -28.92 15.17 L -30.20 16.01 L -29.40 16.02 L -29.31 16.32 L -29.56 16.76 L -29.56 17.11 L -29.99 17.65 L -29.31 17.69 L -29.53 18.15 L -28.68 18.09 L -29.16 18.68 L -29.34 19.13 L -29.09 19.37 L -28.75 19.55 L -28.27 19.66 L -27.07 19.35 L -27.55 19.98 L -26.31 19.62 L -26.37 20.01 L -25.96 20.12 L -26.48 20.80 L -24.94 20.19 L -24.98 20.57 L -25.30 21.14 L -23.95 20.59 L -24.41 21.27 L -24.64 21.80 L -23.29 21.20 L -22.80 21.21 L -23.37 21.99 L -22.85 21.97 L -23.07 22.51 L -22.02 22.06 L -21.62 22.11 L -21.96 22.76 L -22.09 23.25 L -22.05 23.60 L -21.32 23.36 L -22.13 24.47 L -22.11 24.86 L -21.29 24.53 L -21.07 24.73 L -21.58 25.63 L -21.15 25.64 L -20.89 25.82 L -21.38 26.75 L -21.10 26.91 L -21.31 27.60 L -20.80 27.52 L -20.79 27.98 L -20.48 28.12 L -20.82 28.99 L -20.65 29.30 L -20.50 29.64 L -20.07 29.63 L -19.40 29.34 L -19.32 29.76 L -19.23 30.18 L -18.46 29.73 L -17.88 29.50 L -17.92 30.09 L -17.68 30.30 L -17.39 30.46 L -16.39 29.60 L -16.03 29.63 L -16.25 30.51 L -15.75 30.33 L -14.82 29.49 L -14.88 30.14 L -14.03 29.38 L -13.65 29.32 L -14.12 30.70 L -13.94 31.01 L -13.76 31.32 L -13.24 31.04 L -13.32 31.83 L -12.79 31.51 L -12.48 31.60 L -12.31 31.95 L -11.79 31.62 L -11.81 32.38 L -11.54 32.56 L -11.05 32.26 L -10.87 32.63 L -9.94 31.32 L -10.17 32.61 L -9.30 31.36 L -9.29 32.14 L -8.89 31.95 L -8.98 33.02 L -8.61 32.96 L -8.60 33.82 L -7.99 33.10 L -8.07 34.28 L -7.76 34.38 L -7.23 33.80 L -6.96 34.00 L -6.70 34.25 L -6.34 34.16 L -6.09 34.44 L -5.53 33.66 L -5.13 33.35 L -4.94 33.87 L -4.45 33.23 L -4.39 34.32 L -4.15 34.67 L -3.89 35.00 L -3.36 34.07 L -3.24 35.06 L -3.07 35.90 L -2.64 35.42 L -2.39 35.92 L -2.08 36.06 L -1.63 35.32 L -1.33 35.54 L -1.02 35.67 L -0.77 36.33 L -0.37 35.85 L -0.06 36.05 L 0.27 36.11 L 0.63 35.77 L 1.01 35.09 L 1.28 35.99 L 1.60 36.16 L 1.98 35.22 L 2.34 34.36 L 2.64 34.88 L 2.96 34.92 L 3.28 35.29 L 3.61 35.31 L 3.94 35.37 L 4.27 35.65 L 4.59 35.12 L 4.92 35.16 L 5.22 34.52 L 5.60 35.56 L 5.94 35.79 L 6.23 35.11 L 6.56 35.16 L 6.89 35.13 L 7.29 35.74 L 7.46 34.22 L 7.83 34.64 L 8.24 35.23 L 8.59 35.31 L 8.72 33.88 L 9.03 33.80 L 9.56 35.04 L 9.74 34.12 L 10.12 34.34 L 10.33 33.73 L 10.88 34.76 L 11.01 33.77 L 11.48 34.39 L 11.89 34.68 L 12.29 34.88 L 12.61 34.75 L 12.78 34.05 L 12.96 33.46 L 13.30 33.43 L 13.81 33.99 L 14.20 34.10 L 14.34 33.43 L 14.58 33.07 L 15.09 33.54 L 15.36 33.29 L 15.72 33.29 L 16.00 33.07 L 15.86 31.74 L 16.50 32.48 L 17.07 33.00 L 17.38 32.86 L 17.52 32.31 L 18.03 32.62 L 18.74 33.38 L 18.86 32.80 L 19.12 32.53 L 19.67 32.86 L 20.35 33.47 L 20.91 33.78 L 21.07 33.28 L 21.62 33.55 L 21.56 32.66 L 22.30 33.25 L 22.79 33.38 L 22.73 32.51 L 23.25 32.68 L 23.20 31.87 L 23.64 31.91 L 24.09 31.93 L 24.00 31.09 L 24.64 31.42 L 24.74 30.90 L 24.66 30.12 L 25.52 30.75 L 30.79 37.64 L 31.66 38.10 L 30.70 35.99 L 25.64 28.43 L 24.93 26.91 L 26.01 27.75 L 26.60 27.94 L 27.04 27.92 L 27.59 28.03 L 27.27 27.07 L 27.72 27.06 L 28.16 27.03 L 28.82 27.23 L 29.24 27.14 L 29.78 27.19 L 30.01 26.89 L 29.82 26.15 L 30.15 25.96 L 30.70 26.01 L 30.90 25.68 L 31.45 25.70 L 30.97 24.71 L 31.74 24.94 L 31.47 24.18 L 31.55 23.76 L 32.04 23.71 L 32.68 23.78 L 32.64 23.26 L 32.23 22.43 L 33.26 22.81 L 32.82 21.97 L 33.54 22.08 L 33.67 21.71 L 33.52 21.13 L 33.41 20.59 L 34.31 20.81 L 34.12 20.21 L 34.70 20.18 L 34.58 19.64 L 34.88 19.40 L 34.57 18.75 L 35.03 18.62 L 34.69 17.96 L 35.02 17.75 L 35.17 17.42 L 35.26 17.05 L 35.91 17.02 L 36.12 16.71 L 35.72 16.06 L 36.08 15.85 L 35.19 14.95 L 35.68 14.81 L 35.69 14.42 L 36.45 14.41 L 36.68 14.12 L 36.69 13.72 L 37.39 13.65 L 38.09 13.57 L 38.25 13.24 L 38.73 13.04 L 38.49 12.53 L 38.62 12.18 L 39.14 11.98 L 38.94 11.50 L 38.86 11.07 L 39.00 10.72 L 38.76 10.24 L 39.59 10.14 L 39.88 9.84 L 39.85 9.43 L 38.92 8.74 L 39.60 8.56 L 39.63 8.18 L 38.77 7.54 L 38.78 7.16 L 38.65 6.76 L 39.29 6.55 L 39.50 6.22 L 39.79 5.92 L 40.19 5.63 L 39.60 5.11 L 39.42 4.70 L 40.09 4.46 L 39.83 4.03 L 40.62 3.80 L 40.52 3.40 L 40.23 2.98 L 40.59 2.66 L 39.76 2.16 L 40.24 1.85 L 40.33 1.49 L 39.45 1.01 L 40.73 0.78 L 41.04 0.44 L 41.17 0.07 L 41.26 -0.30 L 41.56 -0.66 L 40.66 -1.10 L 41.24 -1.45 L 41.39 -1.82 L 41.19 -2.21 L 41.50 -2.58 L 42.03 -2.96 L 41.40 -3.35 L 42.09 -3.73 L 41.73 -4.12 L 40.90 -4.49 L 41.60 -4.89 L 41.49 -5.27 L 40.83 -5.62 L 40.34 -5.98 L 40.26 -6.35 L 40.55 -6.75 L 40.72 -7.14 L 40.61 -7.51 L 40.89 -7.92 L 41.20 -8.34 L 40.08 -8.60 L 40.92 -9.09 L 40.24 -9.38 L 40.27 -9.77 L 41.00 -10.28 L 40.26 -10.54 L 41.01 -11.07 L 40.20 -11.31 L 40.99 -11.86 L 40.39 -12.14 L 40.45 -12.55 L 39.96 -12.84 L 39.55 -13.14 L 39.56 -13.54 L 39.90 -14.02 L 39.08 -14.20 L 38.34 -14.40 L 38.26 -14.77 L 38.54 -15.24 L 39.23 -15.85 L 38.14 -15.92 L 39.21 -16.67 L 38.71 -16.91 L 39.01 -17.43 L 38.24 -17.57 L 38.18 -17.96 L 38.55 -18.52 L 38.25 -18.82 L 37.81 -19.07 L 38.27 -19.68 L 38.25 -20.11 L 37.76 -20.32 L 37.89 -20.82 L 37.26 -20.97 L 37.14 -21.34 L 36.83 -21.63 L 37.23 -22.27 L 36.35 -22.27 L 36.12 -22.60 L 36.48 -23.23 L 35.90 -23.37 L 36.31 -24.04 L 35.54 -24.07 L 35.77 -24.66 L 35.26 -24.82 L 35.07 -25.17 L 35.52 -25.91 L 35.36 -26.29 L 35.29 -26.73 L 35.07 -27.07 L 34.37 -27.09 L 34.41 -27.61 L 34.08 -27.87 L 34.04 -28.34 L 33.92 -28.76 L 33.45 -28.92 L 33.16 -29.21 L 32.47 -29.20 L 32.41 -29.66 L 31.89 -29.77 L 31.38 -29.87 L 30.58 -29.73 L 30.14 -29.87 L 30.35 -30.57 L 30.63 -31.33 L 30.39 -31.66 L 30.42 -32.23 L 30.57 -32.92 L 30.32 -33.26 L 29.88 -33.40 L 30.11 -34.20 L 29.80 -34.48 L 29.69 -34.97 L 29.48 -35.36 L 29.64 -36.13 L 29.18 -36.27 L 28.98 -36.70 L 28.33 -36.62 L 28.40 -37.34 L 28.10 -37.65 L 27.42 -37.53 L 26.98 -37.67 L 26.89 -38.22 L 26.32 -38.21 L 25.90 -38.36 L 25.43 -38.45 L 24.54 -37.99 L 24.24 -38.28 L 23.70 -38.25 L 23.22 -38.29 L 23.00 -38.71 L 22.66 -38.94 L 21.63 -38.17 L 21.26 -38.33 L 21.30 -39.14 L 20.98 -39.39 L 20.43 -39.30 L 20.41 -40.03 L 20.68 -41.29 L 25.73 -50.65 L 25.28 -50.91 L 24.83 -51.17 L 19.53 -42.71 L 18.32 -41.40 L 17.76 -41.23 L 17.43 -41.49 L 16.95 -41.47 L 16.71 -41.89 L 16.18 -41.77 L 15.83 -41.98 L 15.45 -42.15 L 15.44 -43.14 L 14.67 -42.42 L 14.57 -43.24 L 14.16 -43.35 L 13.81 -43.59 L 13.30 -43.46 L 12.76 -43.21 L 12.47 -43.62 L 12.29 -44.36 L 11.80 -44.25 L 11.29 -44.05 L 10.97 -44.42 L 10.71 -44.98 L 10.39 -45.38 L 9.80 -44.92 L 9.51 -45.42 L 9.02 -45.25 L 8.72 -45.77 L 8.16 -45.31 L 7.70 -45.22 L 7.34 -45.55 L 6.99 -45.91 L 6.43 -45.35 L 6.11 -45.89 L 5.53 -45.18 L 5.21 -45.74 L 4.67 -45.11 L 4.25 -45.15 L 3.87 -45.41 L 3.44 -45.41 L 2.98 -45.14 L 2.70 -46.17 L 2.30 -46.36 L 1.84 -46.09 L 1.47 -46.68 L 1.05 -46.79 L 0.56 -46.11 L 0.19 -46.76 L -0.25 -46.68 L -0.66 -46.95 L -1.09 -47.01 L -1.58 -45.91 L -2.00 -45.91 L -2.40 -46.67 L -2.84 -46.11 L -3.27 -46.10 L -3.69 -46.02 L -4.11 -45.65 L -4.55 -46.30 L -4.98 -46.58 L -5.39 -45.96 L -5.85 -46.64 L -6.29 -46.79 L -6.68 -46.10 L -7.15 -46.65 L -7.62 -47.07 L -8.01 -46.49 L -8.49 -46.97 L -8.88 -46.50 L -9.33 -46.58 L -9.73 -46.29 L -10.10 -45.78 L -10.59 -46.11 L -10.94 -45.57 L -11.45 -45.99 L -11.68 -44.78 L -12.27 -45.63 L -12.61 -45.12 L -13.13 -45.49 L -13.62 -45.69 L -14.02 -45.49 L -14.49 -45.57 L -15.00 -45.81 L -15.44 -45.74 L -15.89 -45.71 L -16.26 -45.37 L -16.65 -45.10 L -17.13 -45.17 L -17.58 -45.13 L -17.76 -44.22 L -18.20 -44.16 L -18.67 -44.17 L -18.96 -43.67 L -19.36 -43.48 L -19.74 -43.23 L -20.11 -42.99 L -20.53 -42.87 L -21.21 -43.40 L -21.33 -42.51 L -21.94 -42.83 L -22.23 -42.40 L -23.00 -43.04 L -23.28 -42.58 L -23.78 -42.58 L -24.36 -42.76 L -24.72 -42.48 L -25.11 -42.23 L -25.56 -42.12 L -25.99 -41.98 L -26.25 -41.50 L -26.61 -41.20 L -27.01 -41.00 L -27.70 -41.30 L -27.94 -40.81 L -28.25 -40.44 L -28.53 -40.02 L -29.03 -39.97 L -29.07 -39.19 L -29.52 -39.05 L -29.55 -38.28 L -29.77 -37.81 L -30.09 -37.49 L -30.86 -37.82 L -30.68 -36.79 L -31.67 -37.41 L -31.71 -36.71 L -32.09 -36.47 L -32.90 -36.79 L -33.32 -36.59 L -33.31 -35.85 L -33.70 -35.61 L -34.54 -35.92 L -34.60 -35.28 L -35.27 -35.36 L -35.57 -35.01 L -35.81 -34.60 L -35.89 -33.99 L -36.63 -34.13 L -36.76 -33.59 L -37.43 -33.63 L -37.56 -33.11 L -38.19 -33.08 L -38.51 -32.74 L -39.17 -32.74 L -38.95 -31.88 L -39.42 -31.68 L -40.29 -31.85 L -40.23 -31.16 L -41.05 -31.26 L -41.12 -30.70 L -42.00 -30.82 L -42.28 -30.43 L -42.24 -29.78 L -43.02 -29.80 L -42.89 -29.08 L -43.11 -28.65 L -43.87 -28.63 L -43.55 -27.79 L -43.69 -27.30 L -44.06 -26.98 L -44.59 -26.78 L -44.64 -26.23 L -44.04 -25.25 L -44.57 -25.04 L -44.36 -24.35 L -44.11 -23.64 L -44.72 -23.47 L -44.17 -22.60 L -44.34 -22.17 L -45.11 -22.09 L -46.17 -22.16 L -46.00 -21.53 L -46.63 -21.34 L -47.63 -21.34 L -47.50 -20.73 L -48.14 -20.53 L -48.73 -20.28 L -48.37 -19.57 L -49.35 -19.50 L -49.02 -18.81 L -49.48 -18.49 L -50.20 -18.28 L -49.63 -17.49 L -50.18 -17.20 L -50.33 -16.73 L -50.50 -16.28 L -50.68 -15.83 L -50.58 -15.27 L -50.32 -14.65 L -50.54 -14.22 L -50.21 -13.59 L -50.29 -13.11 L -50.60 -12.71 L -50.74 -12.25 L -50.49 -11.67 L -49.97 -11.02 L -50.62 -10.72 L -49.74 -9.98 L -50.40 -9.68 L -50.42 -9.19 L -50.41 -8.71 L -50.39 -8.22 L -50.25 -7.71 L -50.20 -7.21 L -50.63 -6.83 L -51.04 -6.43 L -51.34 -6.01 L -51.19 -5.50 L -50.87 -4.96 L -51.25 -4.55 L -51.42 -4.10 L -51.44 -3.62 L -51.65 -3.17 L -50.87 -2.59 L -51.32 -2.17 L -52.02 -1.77 L -51.86 -1.28 L -51.75 -0.79 L -51.50 -0.29 L -51.94 0.15 L -51.83 0.64 L -51.71 1.12 L -51.99 1.58 L -52.31 2.05 L -52.24 2.54 L -51.76 3.02 L -51.86 3.50 L -52.71 3.98 L -52.42 4.46 L -51.86 4.93 L -51.95 5.42 L -52.42 5.92 L -52.73 6.42 L -52.09 6.87 L -52.20 7.36 L -52.49 7.87 L -52.14 8.33 L -51.74 8.78 L -51.01 9.18 L -51.77 9.75 L -51.64 10.22 L -51.64 10.71 L -51.41 11.17 L -51.95 11.74 L -52.10 12.26 L -52.22 12.78 L -51.92 13.23 L -51.99 13.74 L -51.87 14.22 L -51.60 14.67 L -51.17 15.08 L -51.15 15.58 L -50.86 16.02 L -50.64 16.46 L -50.51 16.94 L -50.02 17.31 L -49.69 17.73 L -49.71 18.24 L -49.93 18.81 L -48.93 19.01 L -49.48 19.69 L -52.17 21.10 L -60.94 24.63 L -60.74 25.20 L -60.54 25.77 L -51.84 23.18 L -49.75 22.94 L -49.14 23.25 L -48.66 23.59 L -48.22 23.95 L -48.48 24.60 L -48.42 25.11 L -48.38 25.64 L -47.14 25.63 L -47.78 26.48 L -46.85 26.58 L -46.50 26.97 L -45.67 27.10 L -46.35 28.00 L -45.47 28.10 L -45.90 28.89 L -45.63 29.31 L -45.90 30.03 L -45.37 30.31 L -45.48 30.95 L -44.93 31.22 L -45.57 32.20 L -44.50 32.13 L -44.98 33.04 L -43.94 32.98 L -43.73 33.44 L -43.54 33.92 L -42.94 34.12 L -43.42 35.08 L -42.10 34.76 L -42.49 35.67 L -41.34 35.45 L -41.52 36.21 L -41.18 36.59 L -40.91 37.02 L -40.88 37.65 L -40.80 38.25 L -40.87 38.97 L -40.11 39.01 L -39.72 39.35 L -39.44 39.79 L -40.07 41.04 L -39.81 41.53 L -39.53 41.98 L -39.09 42.30 L -38.82 42.77 L -38.32 43.02 L -38.12 43.58 L -37.37 43.57 L -37.45 44.42 L -36.30 43.97 L -36.49 44.95 L -35.65 44.81 L -35.48 45.42 L -34.87 45.53 L -34.54 45.95 L -34.31 46.50 L -33.49 46.33 L -32.67 46.16 L -32.44 46.71 L -32.33 47.41 L -31.81 47.61 L -31.09 47.52 L -30.33 47.37 L -30.22 48.09 L -29.82 48.43 L -29.19 48.44 L -28.37 48.16 L -28.20 48.84 L -27.95 49.40 L -27.04 48.94 L -26.60 49.21 L -26.31 49.73 L -25.65 49.62 L -25.41 50.23 L -25.21 50.92 L -24.67 51.02 L -24.09 51.06 L -23.67 51.37 L -23.48 52.11 L -23.34 52.98 L -23.03 53.56 L -22.34 53.37 L -22.04 53.96 L -21.69 54.48 L -21.44 55.23 L -20.85 55.23 L -20.28 55.29 L -19.76 55.44 L -19.43 56.05 L -19.04 56.56 L -18.46 56.58 L -18.11 57.18 L -17.47 57.05 L -17.18 57.85 L -16.40 57.32 L -16.15 58.27 L -15.44 57.91 L -14.85 57.86 L -14.30 57.95 L -13.90 58.53 L -12.97 57.32 L -12.60 57.98 L -12.00 57.85 L -11.32 57.40 L -10.87 57.82 L -10.24 57.51 L -9.45 56.50 L -8.91 56.50 L -8.52 57.17 L -7.92 56.88 L -7.39 56.96 L -6.99 57.70 L -6.49 57.90 L -6.09 58.79 L -5.55 58.81 L -5.03 59.05 L -4.42 58.62 L -4.01 59.63 L -3.50 60.00 L -2.95 59.99 L -2.40 60.03 L -1.84 60.01 L -1.21 59.11 L -0.63 58.56 L -0.12 59.15 L 0.44 58.75 L 0.98 58.90 L 1.50 59.25 L 2.05 59.20 L 2.61 58.52 L 3.15 57.79 L 3.68 58.63 L 4.21 57.07 L 4.76 58.52 L 5.31 58.70 L 5.81 57.57 L 6.33 57.35 L 6.86 57.44 L 7.42 57.83 L 7.93 57.42 L 8.53 58.24 L 8.97 57.14 L 9.53 57.42 L 10.12 57.87 L 10.70 58.13 L 11.24 58.08 L 11.77 57.93 L 12.30 57.84 L 12.73 57.08 L 13.34 57.45 L 13.81 56.99 L 14.24 56.39 L 14.84 56.64 L 15.29 56.15 L 15.96 56.72 L 16.43 56.38 L 17.17 57.14 L 17.41 55.85 L 18.03 56.11 L 18.49 55.71 L 19.21 56.29 L 19.74 56.17 L 20.39 56.43 L 20.90 56.22 L 21.12 55.08 L 21.87 55.64 L 22.28 55.13 L 22.70 54.68 L 23.63 55.67 L 23.86 54.69 L 24.19 54.00 L 25.04 54.69 L 25.70 54.87 L 26.12 54.41 L 26.26 53.31 L 26.56 52.62 L 27.22 52.77 L 27.67 52.45 L 28.08 52.05 L 28.70 52.08 L 29.33 52.13 L 30.22 52.70 L 30.70 52.40 L 31.09 51.95 L 31.46 51.46 L 31.97 51.24 L 32.62 51.26 L 33.19 51.14 L 33.79 51.06 L 33.86 50.07 L 34.63 50.27 L 34.95 49.73 L 35.26 49.16 L 35.94 49.20 L 35.71 47.83 L 36.93 48.66 L 36.49 47.02 L 37.25 47.16 L 37.59 46.69 L 38.91 47.56 L 38.46 46.01 L 39.82 46.90 L 40.30 46.60 L 39.81 45.05 L 41.17 45.87 L 41.67 45.59 L 41.99 45.08 L 41.44 43.55 L 42.21 43.60 L 43.05 43.72 L 43.11 42.94 L 44.35 43.47 L 44.09 42.35 L 45.25 42.76 L 46.13 42.86 L 46.02 41.91 L 46.39 41.48 L 47.09 41.37 L 47.65 41.10 L 48.38 41.00 L 48.81 40.61 L 50.20 41.09 L 50.52 40.58 L 50.94 40.15 L 51.68 40.01 L 51.03 38.67 L 51.38 38.19 L 52.31 38.19 L 52.81 37.83 L 52.16 36.56 L 53.19 36.62 L 52.37 35.25 L 52.77 34.83 L 53.01 34.28 L 52.85 33.45 L 53.61 33.28 L 53.45 32.47 L 52.90 31.40 L 53.57 31.17 L 54.60 31.16 L 54.07 30.14 L 56.06 30.71 L 55.94 29.95 L 56.62 29.67 L 57.72 29.64 L 58.29 29.28 L 57.65 28.24 L 58.86 28.23 L 58.41 27.31 L 59.92 27.43 L 59.01 26.28 L 60.42 26.32 L 60.41 25.65 L 60.13 24.84 L 60.84 24.51 L 60.63 23.76 L 61.69 23.58 L 61.09 22.65 L 61.38 22.13 L 62.43 21.91 L 70.50 24.52 L 70.76 23.88 L 70.67 23.11 L 63.49 19.71 L 62.47 18.69 L 62.54 18.08 L 62.90 17.57 L 63.79 17.24 L 62.72 16.26 L 63.67 15.93 L 63.71 15.31 L 63.12 14.51 L 63.85 14.10 L 64.14 13.56 L 63.36 12.73 L 64.17 12.32 L 64.16 11.70 L 63.50 10.94 L 62.98 10.21 L 64.01 9.83 L 63.55 9.13 L 62.80 8.39 L 63.94 8.01 L 63.07 7.25 L 63.50 6.73 L 64.54 6.30 L 63.46 5.54 L 64.99 5.16 L 66.15 4.70 L 65.87 4.06 L 65.64 3.42 L 66.26 2.88 L 67.44 2.37 L 67.06 1.72 L 68.08 1.18 L 66.74 0.47 L 67.86 -0.09 L 67.51 -0.73 L 66.77 -1.37 L 67.34 -1.97 L 67.17 -2.59 L 67.59 -3.21 L 66.33 -3.83 L 66.52 -4.44 L 66.66 -5.05 L 66.24 -5.66 L 65.06 -6.22 L 65.47 -6.84 L 65.43 -7.45 L 65.22 -8.04 L 64.02 -8.55 L 63.93 -9.14 L 63.77 -9.72 L 65.34 -10.48 L 65.52 -11.11 L 64.91 -11.65 L 65.06 -12.28 L 65.66 -12.98 L 65.27 -13.54 L 64.33 -14.01 L 64.65 -14.68 L 64.91 -15.34 L 63.87 -15.77 L 63.50 -16.31 L 64.88 -17.22 L 63.91 -17.64 L 62.69 -17.98 L 63.45 -18.78 L 63.45 -19.40 L 62.25 -19.73 L 61.18 -20.06 L 60.53 -20.49 L 60.86 -21.20 L 60.60 -21.74 L 62.46 -22.93 L 60.62 -22.98 L 61.04 -23.75 L 61.18 -24.43 L 60.13 -24.71 L 60.47 -25.46 L 59.91 -25.90 L 61.10 -26.99 L 59.16 -26.89 L 60.05 -27.89 L 59.61 -28.37 L 58.69 -28.64 L 59.04 -29.44 L 58.16 -29.71 L 58.35 -30.46 L 57.93 -30.93 L 58.50 -31.87 L 57.32 -31.98 L 56.32 -32.15 L 56.26 -32.79 L 56.94 -33.81 L 56.25 -34.14 L 56.67 -35.05 L 55.66 -35.19 L 55.74 -35.93 L 55.42 -36.45 L 54.68 -36.72 L 55.67 -38.03 L 54.70 -38.16 L 55.25 -39.23 L 54.50 -39.48 L 54.10 -39.96 L 54.78 -41.16 L 54.52 -41.75 L 54.12 -42.24 L 52.89 -42.13 L 52.68 -42.74 L 51.89 -42.94 L 51.28 -43.25 L 52.42 -44.91 L 50.52 -44.22 L 50.01 -44.60 L 50.95 -46.16 L 49.18 -45.52 L 49.56 -46.64 L 49.48 -47.39 L 48.26 -47.17 L 47.13 -46.98 L 46.60 -47.33 L 46.16 -47.75 L 46.81 -49.21 L 45.70 -49.00 L 45.20 -49.38 L 43.93 -48.98 L 44.80 -50.72 L 44.49 -51.30 L 43.64 -51.30 L 42.50 -50.98 L 43.08 -52.52 L 41.89 -52.13 L 41.79 -52.94 L 41.12 -53.12 L 40.83 -53.73 L 40.18 -53.91 L 40.94 -55.82 L 39.84 -55.46 L 40.27 -57.02 L 38.85 -56.23 L 38.83 -57.25 L 38.27 -57.56 L 37.82 -58.03 L 37.46 -58.61 L 37.06 -59.15 L 35.69 -58.30 L 35.54 -59.19 L 34.74 -59.13 L 34.23 -59.50 L 33.84 -60.07 L 32.85 -59.67 L 32.20 -59.80 L 31.37 -59.63 L 31.88 -61.73 L 31.50 -62.35 L 30.94 -62.67 L 31.13 -64.34 L 30.61 -64.76 L 29.96 -64.94 L 29.53 -65.54 L 29.12 -66.19 L 29.02 -67.50 L 27.98 -66.89 L 27.81 -68.10 L 26.81 -67.52 L 26.63 -68.77 L 25.77 -68.48 L 25.62 -69.85 L 24.38 -68.63 L 23.97 -69.40 L 23.26 -69.43 L 22.47 -69.26 L 21.89 -69.62 L 21.43 -70.31 L 20.39 -69.40 L 19.67 -69.34 L 18.82 -68.86 L 18.49 -69.99 L 17.56 -69.22 L 17.01 -69.67 L 16.21 -69.30 L 14.99 -67.34 L 14.78 -69.01 L 13.51 -66.68 L 12.98 -67.15 L 12.34 -67.18 L 12.13 -69.03 L 11.48 -69.09 L 10.90 -69.45 L 10.15 -69.00 L 9.76 -70.37 L 8.92 -69.40 L 8.55 -71.00 L 7.96 -71.47 L 7.33 -71.75 L 6.64 -71.61 L 6.05 -72.14 L 5.41 -72.36 L 4.63 -71.48 L 4.08 -72.52 L 3.33 -71.68 L 2.62 -71.09 L 2.12 -73.01 L 1.38 -72.09 L 0.67 -71.40 L 0.04 -71.81 L -0.61 -72.12 L -1.22 -73.52 L -1.93 -72.20 L -2.57 -73.73 L -3.25 -73.93 L -3.92 -72.66 L -4.59 -72.26 L -5.27 -73.06 L -5.92 -72.31 L -6.61 -72.89 L -7.31 -73.42 L -7.97 -73.24 L -8.66 -73.32 L -9.21 -71.61 L -9.94 -72.39 L -10.55 -71.70 L -11.19 -71.48 L -11.81 -71.05 L -12.43 -70.64 L -12.79 -68.39 L -13.49 -68.74 L -14.06 -68.25 L -14.98 -69.89 L -15.56 -69.41 L -16.26 -69.65 L -16.93 -69.61 L -17.92 -71.25 L -18.56 -71.01 L -19.39 -71.66 L -20.01 -71.30 L -20.40 -69.99 L -21.42 -71.33 L -22.15 -71.44 L -22.65 -70.64 L -23.31 -70.47 L -24.09 -70.73 L -24.50 -69.71 L -24.89 -68.66 L -25.76 -69.17 L -26.12 -68.10 L -26.47 -67.04 L -26.93 -66.34 L -27.76 -66.72 L -28.03 -65.53 L -29.02 -66.30 L -29.27 -65.12 L -30.25 -65.80 L -30.91 -65.64 L -31.43 -65.18 L -32.32 -65.56 L -33.28 -66.07 L -33.95 -65.90 L -34.74 -65.98 L -35.04 -65.03 L -36.07 -65.60 L -36.42 -64.74 L -36.54 -63.49 L -37.79 -64.43 L -37.85 -63.09 L -38.24 -62.39 L -38.61 -61.67 L -39.20 -61.35 L -40.20 -61.75 L -40.62 -61.13 L -41.26 -60.89 L -40.93 -59.08 L -42.01 -59.55 L -41.79 -57.97 L -43.18 -58.89 L -43.00 -57.42 L -43.69 -57.27 L -43.65 -56.06 L -44.45 -56.04 L -45.52 -56.41 L -45.17 -54.81 L -45.93 -54.74 L -46.99 -55.04 L -47.36 -54.44 L -48.55 -54.87 L -52.21 -58.30 L -56.65 -62.52 L -57.24 -62.03 L -57.83 -61.52 L -54.52 -56.57 L -51.64 -52.27 L -52.77 -52.51 L -52.83 -51.56 L -54.03 -51.85 L -53.96 -50.78 L -53.72 -49.57 L -54.02 -48.92 L -54.86 -48.81 L -56.06 -49.03 L -56.56 -48.56 L -55.47 -46.61 L -56.53 -46.68 L -56.10 -45.39 L -57.62 -45.85 L -57.71 -45.03 L -58.01 -44.41 L -59.61 -44.87 L -58.52 -43.09 L -59.15 -42.74 L -61.04 -43.37 L -61.42 -42.80 L -62.21 -42.53 L -62.18 -41.65 L -61.58 -40.37 L -62.44 -40.15 L -63.12 -39.80 L -64.29 -39.77 L -63.26 -38.24 L -64.43 -38.20 L -64.71 -37.56 L -65.03 -36.95 L -65.02 -36.13 L -66.44 -36.20 L -65.94 -35.09 L -66.41 -34.57 L -67.40 -34.35 L -67.23 -33.45 L -66.57 -32.31 L -67.77 -32.18 L -68.34 -31.70 L -68.91 -31.22 L -69.78 -30.87 L -69.93 -30.17 L -69.50 -29.19 L -70.02 -28.67 L -71.73 -28.69 L -72.37 -28.20 L -71.77 -27.16 L -71.96 -26.47 L -72.61 -25.98 L -72.85 -25.31 L -73.77 -24.91 L -74.87 -24.57 L -75.11 -23.88 L -75.21 -23.15 L -75.73 -22.57 L -76.26 -21.98 L -75.37 -20.92 L -75.77 -20.30 L -74.89 -19.27 L -75.26 -18.64 L -74.77 -17.76 L -75.64 -17.27 L -74.53 -16.24 L -74.59 -15.53 L -73.84 -14.62 L -73.46 -13.82 L -74.63 -13.38 L -73.52 -12.43 L -74.53 -11.94 L -76.20 -11.57 L -76.38 -10.88 L -76.58 -10.20 L -76.88 -9.53 L -78.60 -9.09 L -78.26 -8.30 L -79.24 -7.72 L -79.00 -6.95 L -79.91 -6.33 L -80.24 -5.62 L -80.66 -4.93 L -80.20 -4.14 L -79.60 -3.34 L -79.20 -2.58 L -79.43 -1.87 L -80.51 -1.20 L -80.57 -0.46 L -79.36 0.33 L -79.43 1.05 L -79.26 1.79 L -77.84 2.54 L -78.13 3.25 L -78.04 3.97 L -77.37 4.67 L -76.54 5.37 L -77.11 6.09 L -75.93 6.75 L -77.45 7.53 L -75.55 8.13 L -76.47 8.89 L -76.00 9.57 L -74.54 10.15 L -75.63 10.94 L -74.80 11.56 L -75.16 12.30 L -74.07 12.87 L -75.52 13.76 L -74.27 14.29 L -73.82 14.93 L -75.50 15.90 L -75.20 16.56 L -75.05 17.26 L -75.63 18.09 L -75.45 18.78 L -74.39 19.29 L -74.11 19.95 L -74.87 20.84 L -74.23 21.42 L -74.67 22.26 L -74.67 23.00 L -74.64 23.73 L -74.95 24.57 L -75.28 25.41 L -74.96 26.08 L -73.67 26.44 L -74.22 27.37 L -73.35 27.85 L -72.97 28.48 L -73.85 29.55 L -73.34 30.14 L -71.97 30.42 L -71.71 31.08 L -72.32 32.09 L -71.44 32.52 L -71.37 33.27 L -70.65 33.75 L -70.68 34.55 L -69.09 34.63 L -68.91 35.33 L -67.68 35.54 L -68.70 36.80 L -69.07 37.78 L -69.05 38.57 L -69.09 39.41 L -68.48 39.92 L -69.09 41.07 L -68.16 41.40 L -68.53 42.44 L -67.30 42.60 L -67.41 43.50 L -66.91 44.07 L -66.36 44.59 L -66.25 45.38 L -65.43 45.74 L -65.96 46.95 L -65.31 47.41 L -63.80 47.29 L -63.49 47.97 L -63.38 48.78 L -63.14 49.50 L -62.28 49.80 L -60.20 49.16 L -59.87 49.80 L -60.07 50.86 L -59.01 50.95 L -59.67 52.39 L -58.84 52.66 L -59.00 53.73 L -58.61 54.36 L -57.24 54.15 L -57.04 54.93 L -56.88 55.76 L -56.68 56.58 L -55.37 56.36 L -55.19 57.19 L -55.02 58.04 L -53.91 57.97 L -54.35 59.44 L -53.74 59.87 L -52.73 59.89 L -52.41 60.62 L -51.53 60.75 L -50.89 61.13 L -50.08 61.32 L -48.73 60.90 L -48.59 61.82 L -48.16 62.43 L -47.73 63.05 L -46.30 62.45 L -46.65 64.01 L -45.42 63.63 L -44.88 64.10 L -44.87 65.28 L -44.79 66.40 L -43.35 65.67 L -43.47 67.07 L -42.75 67.33 L -42.16 67.76 L -41.53 68.13 L -41.66 69.66 L -41.28 70.45 L -40.14 70.05 L -39.33 70.15 L -39.47 71.78 L -39.01 72.49 L -37.67 71.70 L -37.34 72.62 L -36.44 72.54 L -36.56 74.30 L -35.11 73.21 L -34.74 74.11 L -33.69 73.71 L -33.18 74.36 L -32.63 74.93 L -31.71 74.75 L -31.25 75.51 L -30.32 75.28 L -29.56 75.42 L -28.87 75.68 L -28.15 75.90 L -27.26 75.68 L -27.06 77.17 L -26.30 77.28 L -25.62 77.59 L -24.53 76.83 L -24.13 77.90 L -23.35 77.91 L -22.55 77.90 L -21.55 77.23 L -20.79 77.25 L -20.33 78.27 L -19.64 78.53 L -18.82 78.39 L -18.26 79.13 L -17.48 79.12 L -16.48 78.19 L -16.16 79.96 L -15.30 79.59 L -14.34 78.71 L -13.56 78.58 L -12.92 79.12 L -12.25 79.51 L -11.52 79.60 L -11.05 81.14 L -10.23 80.82 L -9.45 80.67 L -8.82 81.48 L -8.29 83.11 L -8.79 92.46 L -7.94 92.57 L -7.09 92.67 L -5.39 84.78 L -4.49 83.59 L -3.79 84.39 L -3.05 84.87 L -2.27 84.96 L -1.55 85.85 L -0.73 85.25 L 0.04 85.67 L 0.81 86.05 L 1.63 84.99 L 2.40 85.51 L 3.19 84.80 L 3.97 85.23 L 4.76 85.72 L 5.52 84.51 L 6.29 84.46 L 7.06 84.25 L 7.78 82.94 L 8.52 82.63 L 9.34 83.35 L 9.99 81.79 L 10.76 81.92 L 11.41 80.77 L 12.16 80.77 L 13.03 81.80 L 13.74 81.34 L 14.66 82.47 L 15.39 82.17 L 16.20 82.39 L 16.84 81.51 L 17.72 82.12 L 18.48 82.00 L 19.33 82.37 L 20.23 82.92 L 20.80 81.79 L 21.56 81.65 L 22.51 82.34 L 23.18 81.77 L 23.99 81.77 L 24.34 79.99 L 25.07 79.76 L 25.76 79.37 L 26.83 80.33 L 27.52 79.93 L 28.09 79.16 L 28.85 78.98 L 29.28 77.84 L 30.23 78.26 L 30.41 76.42 L 31.43 77.04 L 31.88 76.06 L 32.58 75.77 L 33.72 76.60 L 33.75 74.62 L 34.89 75.40 L 35.44 74.76 L 36.46 75.19 L 37.13 74.82 L 37.29 73.32 L 38.43 73.98 L 38.99 73.37 L 39.43 72.53 L 40.37 72.73 L 41.39 73.04 L 41.88 72.31 L 42.70 72.23 L 43.12 71.38 L 44.20 71.76 L 44.40 70.54 L 45.31 70.59 L 46.10 70.42 L 46.74 69.98 L 47.55 69.83 L 47.99 69.07 L 48.68 68.71 L 49.97 69.26 L 50.21 68.21 L 51.05 68.07 L 51.73 67.68 L 52.15 66.92 L 52.80 66.49 L 53.97 66.76 L 54.33 65.94 L 54.72 65.15 L 55.45 64.82 L 55.34 63.43 L 56.66 63.83 L 56.86 62.84 L 56.74 61.49 L 57.51 61.21 L 58.09 60.71 L 58.80 60.34 L 59.78 60.27 L 60.02 59.38 L 60.70 58.98 L 61.31 58.49 L 62.72 58.82 L 62.79 57.77 L 63.38 57.25 L 64.62 57.37 L 64.73 56.38 L 65.07 55.62 L 65.56 55.00 L 65.99 54.33 L 66.45 53.69 L 67.17 53.27 L 68.08 53.02 L 68.36 52.22 L 68.82 51.58 L 69.19 50.86 L 69.30 49.94 L 69.09 48.79 L 69.84 48.39 L 70.22 47.70 L 70.29 46.78 L 70.82 46.21 L 71.03 45.41 L 71.57 44.84 L 71.63 43.95 L 72.04 43.30 L 72.47 42.66 L 72.59 41.82 L 73.20 41.30 L 73.95 40.85 L 74.61 40.34 L 74.64 39.45 L 75.23 38.90 L 75.37 38.09 L 75.66 37.36 L 76.30 36.83 L 76.90 36.27 L 77.23 35.56 L 77.30 34.72 L 77.65 34.03 L 78.42 33.53 L 78.67 32.79 L 78.78 31.98 L 79.05 31.24 L 79.69 30.67 L 80.14 30.01 L 80.09 29.14 L 80.67 28.53 L 80.75 27.72 L 80.62 26.83 L 81.18 26.21 L 81.40 25.46 L 81.34 24.61 L 81.38 23.80 L 81.70 23.08 L 82.11 22.40 L 82.11 21.58 L 82.52 20.89 L 82.84 20.17 L 82.87 19.37 L 83.20 18.65 L 83.57 17.93 L 83.74 17.17 L 83.77 16.37 L 83.96 15.61 L 84.22 14.86 L 84.25 14.07 L 84.56 13.33 L 84.59 12.54 L 84.66 11.75 L 84.81 10.98 L 84.93 10.21 L 85.05 9.43 L 84.99 8.63 L 85.19 7.87 L 85.17 7.07 L 85.23 6.29 L 85.35 5.52 L 85.34 4.73 L 85.43 3.95 L 85.43 3.16 L 85.45 2.38 L 85.48 1.59 L 85.50 0.81 L 85.50 0.02 Z" fill="url(#waveGrad)" stroke="none"/>
    <circle cx="-4" cy="0" r="3.5" fill="#db2777" stroke="none"/>
  </g>

  <!-- Wordmark -->
  <g font-family="-apple-system, BlinkMacSystemFont, 'Segoe UI', Roboto, Helvetica, Arial, sans-serif">
    <text x="220" y="128" font-size="48" font-weight="500" letter-spacing="6" fill="#1a1a1a">SPIRA</text>
    <text x="220" y="158" font-family="ui-monospace, 'SF Mono', Menlo, Consolas, monospace" font-size="14" letter-spacing="3" fill="#666666">SOUND PIPELINE INFERENCE REVIEW &amp; ANNOTATION</text>
  </g>
</svg>
